<svg version="1.1" xmlns="http://www.w3.org/2000/svg" viewBox="0 0 1434.453125 626.3312988281259" width="2868.90625" height="1252.6625976562518">
  <!-- svg-source:excalidraw -->
  
  <defs>
    <style>
      @font-face {
        font-family: "Virgil";
        src: url("https://excalidraw.com/Virgil.woff2");
      }
      @font-face {
        font-family: "Cascadia";
        src: url("https://excalidraw.com/Cascadia.woff2");
      }
    </style>
  </defs>
  <rect x="0" y="0" width="1434.453125" height="626.3312988281259" fill="#ffffff"></rect><g transform="translate(71.15323893229106 10) rotate(0 149.91943359375 42.786621093750455)"><path d="M0 0 L299.83886718749994 0 L299.83886718749994 85.57324218750085 L0 85.57324218750085" stroke="none" stroke-width="0" fill="#000000"></path><path d="M0 0 C86.60677221393188 0, 173.21354442786375 0, 299.83886718749994 0 M0 0 C80.64164097224646 0, 161.28328194449293 0, 299.83886718749994 0 M299.83886718749994 0 C299.83886718749994 28.14659956869819, 299.83886718749994 56.29319913739638, 299.83886718749994 85.57324218750085 M299.83886718749994 0 C299.83886718749994 23.31850846318226, 299.83886718749994 46.63701692636452, 299.83886718749994 85.57324218750085 M299.83886718749994 85.57324218750085 C222.41611969148875 85.57324218750085, 144.99337219547755 85.57324218750085, 0 85.57324218750085 M299.83886718749994 85.57324218750085 C200.9439690684207 85.57324218750085, 102.04907094934148 85.57324218750085, 0 85.57324218750085 M0 85.57324218750085 C0 61.45329153564814, 0 37.33334088379543, 0 0 M0 85.57324218750085 C0 66.58527926756345, 0 47.59731634762604, 0 0" stroke="#000000" stroke-width="1" fill="none"></path></g><g transform="translate(95.65323893229106 10) rotate(0 118 10)"><text x="118" y="14" font-family="Virgil, Segoe UI Emoji" font-size="16px" fill="#fefefe" text-anchor="middle" style="white-space: pre;" direction="ltr">$ kubectl apply -f deploy.yaml</text></g><g><g transform="translate(226.19388999367993 110.34404997704951) rotate(0 79.19553310016249 56.088281146531244)"><path d="M0 0 C26.398511033387496 18.696093715510415, 131.99255516693748 93.48046857755207, 158.39106620032499 112.17656229306249 M0 0 C26.398511033387496 18.696093715510415, 131.99255516693748 93.48046857755207, 158.39106620032499 112.17656229306249" stroke="#000000" stroke-width="1" fill="none"></path></g><g transform="translate(226.19388999367993 110.34404997704951) rotate(0 79.19553310016249 56.088281146531244)"><path d="M129.45532370968158 104.25678915772755 C140.47825389900436 107.27378816559126, 151.5011840883271 110.29078717345497, 158.39106620032499 112.17656229306249 M129.45532370968158 104.25678915772755 C135.56475887051354 105.92895431728665, 141.6741940313455 107.60111947684575, 158.39106620032499 112.17656229306249" stroke="#000000" stroke-width="1" fill="none"></path></g><g transform="translate(226.19388999367993 110.34404997704951) rotate(0 79.19553310016249 56.088281146531244)"><path d="M141.31573350076752 87.51012734191028 C147.82049833849527 96.90668561491611, 154.32526317622305 106.30324388792197, 158.39106620032499 112.17656229306249 M141.31573350076752 87.51012734191028 C144.92098531040446 92.71814939393377, 148.52623712004137 97.92617144595725, 158.39106620032499 112.17656229306249" stroke="#000000" stroke-width="1" fill="none"></path></g></g><g transform="translate(585.9268683486889 43.69197591145712) rotate(0 233.328125 62.130859375)"><path d="M1.6867516804486513 1.1903669368475676 L466.8586585689336 -1.5359690058976412 L467.8963663149625 125.91635830514134 L-0.8940337728708982 124.35746849887074" stroke="none" stroke-width="0" fill="#228be6"></path><path d="M0.3286859530467814 -0.3721390788124675 C99.112709908426 0.504479179765887, 197.90018741922884 0.3790075743898901, 466.2114666843833 0.8481546658345352 M0.331515287066677 -0.45076535443044635 C135.49296128860115 1.8503568450056107, 271.2076473205722 1.5119739142966082, 466.4666433899462 -0.36637855574744116 M466.5895807277411 1.8075587917119265 C467.8863022565244 41.968267105296775, 468.0852726339696 85.88094571001932, 467.08254898898304 126.14021595008673 M465.9437217498198 -0.45116444770246744 C465.7951869894318 43.362420050283625, 465.1842095483593 85.97889818688056, 465.7540694558993 125.104674465023 M466.90918205192617 124.01823682848412 C312.8441404461329 122.96785449061281, 157.7293491832251 122.99638452374194, 0.20291617985897495 123.91229752258205 M466.48428851958045 123.83714489382648 C338.5792320357989 122.0196348263757, 211.13880994815898 122.14574076463013, -0.032286598927344874 124.5151844031352 M0.7159963380545378 126.12095298059286 C-1.5174428112416718 87.88752513533873, -0.7420678622632477 50.5873419952848, 1.30145956389606 -1.2453911732882261 M-0.8622295474633574 123.57923314627261 C-1.0121882389402526 87.82652643986913, 0.011697219767556888 52.24603710254523, 0.8898162329569459 0.319381064735353" stroke="#000000" stroke-width="1" fill="none"></path></g><g transform="translate(699.4268683486889 49.46346028645712) rotate(0 72 10)"><text x="72" y="14" font-family="Virgil, Segoe UI Emoji" font-size="16px" fill="#000000" text-anchor="middle" style="white-space: pre;" direction="ltr">controller-manager</text></g><g transform="translate(358.4659308486889 235.90291341145803) rotate(0 39.83984375 16.947265625)"><path d="M-0.26993690617382526 1.8756020832806826 L80.86784954182805 1.7699210811406374 L79.54019523970784 32.46363468654453 L1.1919854413717985 32.223771708086126" stroke="none" stroke-width="0" fill="#228be6"></path><path d="M-1.5287194084376097 -0.8145646918565035 C22.174499213533277 1.1830106157622504, 45.49956117351686 0.4910870570502449, 81.28366644866766 1.6678311359137297 M0.7185939913615584 -0.7494429862126708 C23.050539283279075 -0.39722189113839695, 47.15864481536993 0.5775216837193149, 79.85958076175304 -0.3723619198426604 M79.94516880996527 -0.951686667278409 C80.9292120653745 10.645843755070745, 81.18780604187215 18.447428056204078, 79.21454204805197 32.8584202658385 M79.95304299052806 -0.8571167206391692 C79.81561269430107 12.899897124401829, 79.4465643670935 25.93386657399605, 78.98435626085849 33.56028664950281 M79.49547495134176 33.77059496752917 C59.80608932443357 34.99611270901288, 38.77919644960057 33.165627901521574, -1.542019410058856 35.07558829896151 M79.99576435144992 33.24022758845239 C60.645351291483536 32.61213252989451, 42.13573470215925 34.373167227188745, -0.35350041929632425 34.07579139713197 M0.9906682539731264 34.441818786785 C-2.190508761369165 23.706574709747287, 1.683758280314032 17.609344472431253, -0.5687205623835325 -0.7102668154984713 M-0.7520273262634873 34.78346518520265 C-0.4249655572454139 26.07373062354272, -0.15723982134262765 17.47963574846726, 0.3087487583979964 -0.3886833703145385" stroke="#000000" stroke-width="1" fill="none"></path></g><g transform="translate(386.8057745986889 242.85017903645803) rotate(0 11.5 10)"><text x="11.5" y="14" font-family="Virgil, Segoe UI Emoji" font-size="16px" fill="#000000" text-anchor="middle" style="white-space: pre;" direction="ltr">api</text></g><g transform="translate(619.2075995498599 112.49511791410669) rotate(0 55.145050048828125 18.865942818777967)"><path d="M0.6908630263060331 0.6491428185254335 L109.0630931388587 -0.8529081176966429 L111.56235076300803 38.543752831806 L1.6413336526602507 38.54863320051557" stroke="none" stroke-width="0" fill="#40c057"></path><path d="M0.46499802358448505 1.9195964466780424 C23.121741726274514 -0.18053929514518519, 44.12322915760224 0.41001547866234045, 108.51948745734992 -1.2427602279931307 M0.01782254036515951 0.3118459666147828 C25.150823081025887 0.792726656212039, 51.641893041547455 -0.12260926722126486, 109.6832958525047 0.9522822881117463 M109.07936628349128 0.6680564414709806 C110.18615613341346 10.143017214126141, 109.05253056645408 18.78272522494048, 109.28926839120689 38.584583619077264 M109.36516750510785 0.5788250947371125 C110.5874414549757 11.8546091893271, 109.3889291690279 24.88989283378281, 111.16199514921757 36.977919552874326 M110.67756213434043 36.91185841842419 C85.35500192076732 38.202151672730366, 59.2459598498944 38.125336604008595, -0.18191556446254253 36.485673466165125 M109.42294547613713 37.311150286745786 C77.37810126288483 38.10276094932006, 42.716900199962126 37.98421419519828, -0.7518083387985826 37.19156349117732 M-0.8953826855868101 36.71426967664486 C-1.334426959763799 24.486911307243858, 1.8092416322123668 12.780135136939535, 1.9706206489354372 -0.17065523751080036 M0.04158980306237936 37.31326926166987 C0.7755933237704449 30.336155266866108, -0.1755491959420033 21.62128740395931, -0.05033262912184 0.39365965966135263" stroke="#000000" stroke-width="1" fill="none"></path></g><g transform="translate(641.190540223688 115.56958007812273) rotate(0 33.162109375 15.791480654761926)"><text x="33.16210937499999" y="10.791480654761909" font-family="Virgil, Segoe UI Emoji" font-size="12.633184523809526px" fill="#000000" text-anchor="middle" style="white-space: pre;" direction="ltr">deployment</text><text x="33.16210937499999" y="26.582961309523817" font-family="Virgil, Segoe UI Emoji" font-size="12.633184523809526px" fill="#000000" text-anchor="middle" style="white-space: pre;" direction="ltr">controller</text></g><g transform="translate(746.8130682998599 112.75683666410669) rotate(0 55.145050048828125 18.865942818777967)"><path d="M0.22993590123951435 -0.7641112674027681 L109.87511129863563 0.07568247430026531 L111.55881704576316 35.967687704999506 L0.40159757621586323 39.24848715348965" stroke="none" stroke-width="0" fill="#40c057"></path><path d="M-0.762880252674222 -0.9926768373697996 C26.943118956154073 -0.6639774877496488, 57.11281559845405 0.386866168313431, 111.78356624953452 -0.8953826855868101 M0.9018097305670381 -0.7424957985058427 C28.460692044272722 0.748242133534264, 54.10127849768788 1.3459382292392963, 110.82885093335065 0.04158980306237936 M110.32565428130331 0.2359988261014223 C110.55502647915719 10.527366488495941, 111.3465547637069 20.129237156871906, 109.0630931388587 36.878977519859134 M110.69847387913617 0.6108058160170913 C110.65081145930084 14.122599575324452, 110.63218116330894 26.539368272070778, 110.50558958295736 37.624830605861305 M109.61099476926032 36.638578636039554 C74.35853018486765 38.34130165038134, 35.83966049488417 38.789434582567466, -0.8070705998688936 39.626959366191684 M110.74425397161397 38.19353544938242 C71.41337146865942 37.304481433633065, 31.14740843744559 37.5475575494797, 0.7340869987383485 36.84540173637545 M-0.7216170895844698 36.55335430561429 C-0.9777004555507094 23.946855870908678, -1.5732685760302931 9.937603606247006, 1.592813802883029 -1.28492103330791 M-0.47485756035894156 37.882589551087975 C0.6719207165754202 26.849474745050316, 0.16150537114504598 16.069174231920375, -0.793487629853189 -0.44138064328581095" stroke="#000000" stroke-width="1" fill="none"></path></g><g transform="translate(770.796008973688 115.83129882812273) rotate(0 31 16)"><text x="31" y="11" font-family="Virgil, Segoe UI Emoji" font-size="12.633184523809526px" fill="#000000" text-anchor="middle" style="white-space: pre;" direction="ltr">replicaset</text><text x="31" y="27" font-family="Virgil, Segoe UI Emoji" font-size="12.633184523809526px" fill="#000000" text-anchor="middle" style="white-space: pre;" direction="ltr">controller</text></g><g transform="translate(878.3052557998599 112.49511791410669) rotate(0 55.145050048828125 18.865942818777967)"><path d="M-0.6894667241722345 -1.2482425179332495 L108.37551694177094 1.156482258811593 L110.84521519206467 37.69260782508975 L0.020714452490210533 37.63922179250842" stroke="none" stroke-width="0" fill="#40c057"></path><path d="M0.5070889387279749 1.6901613380759954 C34.834898525271534 -0.8813372587723707, 64.42007238488638 1.0966350698905016, 111.29855285026136 -0.9771790001541376 M0.8051243675872684 0.15834780503064394 C24.93217020859869 0.37260789567120534, 50.81015732616041 0.4080505757916735, 109.30332237016412 -0.7476837737485766 M109.8452118430287 0.7990608718246222 C109.59950150804656 13.574368127226672, 110.79601438598769 27.867060865416807, 109.86510936357084 39.00416059925085 M109.97311192285272 0.6638140575960279 C110.9366918521071 15.45571439151356, 109.94147086311823 30.20719896157611, 110.35869529377672 36.890597567361354 M110.80958024598661 37.558125690956174 C75.61216248082798 37.95108300106632, 38.31383262155312 40.156689759660836, 1.0906872544437647 38.29634489252096 M111.1368298782036 38.22512243728018 C81.681120073312 38.49701738643317, 54.478731916064454 37.043490263697194, 0.2659692717716098 38.33460332493162 M0.6375598702579737 37.38438286020285 C1.9732570807392593 26.993482677754066, -0.8065827329699997 14.83566622028087, 1.3182430658489466 0.9110315944999456 M0.5228102160617709 38.30382515529966 C0.32607477551984065 24.831837365730337, 1.2171319389967845 12.966467503712277, 0.9285561693832278 0.33485229779034853" stroke="#000000" stroke-width="1" fill="none"></path></g><g transform="translate(904.288196473688 115.56958007812273) rotate(0 29 16)"><text x="29" y="11" font-family="Virgil, Segoe UI Emoji" font-size="12.633184523809526px" fill="#000000" text-anchor="middle" style="white-space: pre;" direction="ltr">service</text><text x="29" y="27" font-family="Virgil, Segoe UI Emoji" font-size="12.633184523809526px" fill="#000000" text-anchor="middle" style="white-space: pre;" direction="ltr">controller</text></g><g><g transform="translate(441.66015625 252.1945800781259) rotate(0 427.7128177545965 0.2579647676004697)"><path d="M-0.3894187230616808 -0.8311809103935957 C142.0058447779467 -0.8301351945847272, 711.148552622522 0.9665844637900591, 853.6983056407422 1.1311155159026385 M1.6069977179914714 1.346845166310668 C144.41395053384204 1.5528076311200858, 713.7189102085183 -0.4323819044977426, 855.8150542322546 -0.397623587027192" stroke="#000000" stroke-width="1" fill="none"></path></g></g><g><g transform="translate(661.01171875 249.4172363281259) rotate(0 -0.3644800707045306 -45.783404562752594)"><path d="M-0.30288147144019606 0.40849211029708377 C-0.5523196816289176 -14.657180034484083, -1.4685552432357023 -75.19928685558644, -1.479276183526963 -90.3436237800307 M1.7389670267142354 -0.42265347713604573 C1.3232215465946744 -15.816552453472582, -2.079820218735064 -76.65091918527766, -2.467927168123424 -91.97530123580242" stroke="#000000" stroke-width="1" fill="none"></path></g><g transform="translate(661.01171875 249.4172363281259) rotate(0 -0.3644800707045306 -45.783404562752594)"><path d="M9.658047813753196 -64.37320637775588 C7.073885452828578 -70.90804753848617, 3.43394553123324 -79.16734457031902, -0.9372627073898911 -93.27111716743553 M9.540236719715008 -65.23252669515091 C3.86505676766783 -75.09221997155113, 1.1192995517837083 -85.3745723675371, -2.581656489521265 -91.8033744309842" stroke="#000000" stroke-width="1" fill="none"></path></g><g transform="translate(661.01171875 249.4172363281259) rotate(0 -0.3644800707045306 -45.783404562752594)"><path d="M-10.844753773628053 -63.50422452851143 C-7.24879180427452 -70.24926754719209, -4.708242357399377 -78.77051575958723, -0.9372627073898911 -93.27111716743553 M-10.962564867666241 -64.36354484590646 C-8.776742296600379 -74.66420770903065, -3.6605319794481783 -85.27977832675283, -2.581656489521265 -91.8033744309842" stroke="#000000" stroke-width="1" fill="none"></path></g></g><g><g transform="translate(799.578125 250.5930175781259) rotate(0 -2.7515705669484305 -48.97312869615848)"><path d="M-0.2862127225846052 1.025668118521571 C-1.5265810133268436 -15.355115133399766, -5.233293183768789 -82.3103778698792, -6.543000845238566 -98.97192551083863 M1.7643868687190114 0.5185399354062974 C0.3245695615249373 -15.585716463072847, -5.99556284920002 -81.01939790084337, -7.267528002616018 -97.36233927780762" stroke="#000000" stroke-width="1" fill="none"></path></g><g transform="translate(799.578125 250.5930175781259) rotate(0 -2.7515705669484305 -48.97312869615848)"><path d="M7.147897015125912 -69.47633155506574 C1.0592646875295806 -82.36510113699725, -3.6574598382671146 -91.14609864920354, -7.536232161801308 -95.98080731095746 M4.713706493177872 -70.28701650888198 C1.2779518887434653 -79.124675230203, -1.7594893333053987 -86.2123089776648, -7.57709494093433 -96.46801884105429" stroke="#000000" stroke-width="1" fill="none"></path></g><g transform="translate(799.578125 250.5930175781259) rotate(0 -2.7515705669484305 -48.97312869615848)"><path d="M-13.293406958113165 -67.6671620606623 C-11.707536987432434 -81.18549625618314, -8.760120117566345 -90.64481305917344, -7.536232161801308 -95.98080731095746 M-15.727597480061204 -68.47784701447854 C-13.10621336616612 -77.75980344674655, -10.083245583786532 -85.3838172171645, -7.57709494093433 -96.46801884105429" stroke="#000000" stroke-width="1" fill="none"></path></g></g><g><g transform="translate(824.9005399771968 156.90013183539804) rotate(0 1.3857657713908793 45.100019558695976)"><path d="M0.08985079117119321 0.3875406246632338 C0.3764150567197249 15.17135916930006, 1.4165436766264066 74.18059569058646, 1.9206093917598992 89.1768871508727 M-1.3221162728033962 -0.4546044927276671 C-0.6909997305243271 14.482164111680696, 3.467246868551247 75.81437309454833, 4.093647815584955 90.65464361012002" stroke="#000000" stroke-width="1" fill="none"></path></g><g transform="translate(824.9005399771968 156.90013183539804) rotate(0 1.3857657713908793 45.100019558695976)"><path d="M-7.100366509208943 61.37903136643923 C-4.07630299010188 72.09121313539819, 1.6548814074707057 81.76338431033321, 5.58140134282392 90.0051569622012 M-8.139371620180572 63.56331965490586 C-4.2839945722927535 71.49027267467201, 1.0180394104728547 82.19729295219962, 3.5171505951507065 90.55731602851321" stroke="#000000" stroke-width="1" fill="none"></path></g><g transform="translate(824.9005399771968 156.90013183539804) rotate(0 1.3857657713908793 45.100019558695976)"><path d="M13.387938459215388 60.21741098667729 C9.926537442344749 71.3128984284241, 9.16766913689573 81.35303452272058, 5.58140134282392 90.0051569622012 M12.348933348243758 62.40169927514392 C9.410175870676316 70.83825203594466, 7.920317998729508 81.93035053286289, 3.5171505951507065 90.55731602851321" stroke="#000000" stroke-width="1" fill="none"></path></g></g><g transform="translate(831.6953125 181.8820800781259) rotate(0 33 10)"><text x="0" y="14" font-family="Virgil, Segoe UI Emoji" font-size="16px" fill="#000000" text-anchor="start" style="white-space: pre;" direction="ltr">add Pod</text></g><g><g transform="translate(682.5234375 152.8195800781259) rotate(0 1.762004604348931 47.00222527637152)"><path d="M1.1764790732413528 1.0213444333523511 C1.687619240954518 16.47436969888707, 2.8796018082648516 78.28883466931681, 3.1890173513442277 93.49250423721969 M0.33499185735359793 0.5119463155232369 C0.7226702618040146 15.542197124914576, 2.158828576151282 76.22414731518056, 2.5124716221727432 91.67361140048132" stroke="#000000" stroke-width="1" fill="none"></path></g><g transform="translate(682.5234375 152.8195800781259) rotate(0 1.762004604348931 47.00222527637152)"><path d="M-6.7017380327513045 64.59215991667034 C-3.873512986316177 72.89256812891473, -2.569337533232056 81.9723777690398, 3.6051697957701982 93.30714912323282 M-8.647256506845874 64.46989689769717 C-5.754177784545942 71.83987218661463, -0.45362209119930874 81.36714100373399, 2.267324042823166 92.15480861702935" stroke="#000000" stroke-width="1" fill="none"></path></g><g transform="translate(682.5234375 152.8195800781259) rotate(0 1.762004604348931 47.00222527637152)"><path d="M13.813868820339977 64.1127041468296 C10.281628887697742 72.76296545397042, 5.222245463012311 81.99149333784601, 3.6051697957701982 93.30714912323282 M11.868350346245407 63.99044112785643 C8.092679288234836 71.58917301800719, 6.726262899866014 81.27225093474692, 2.267324042823166 92.15480861702935" stroke="#000000" stroke-width="1" fill="none"></path></g></g><g transform="translate(692.22265625 169.6867675781259) rotate(0 39.5 20)"><text x="0" y="14" font-family="Virgil, Segoe UI Emoji" font-size="16px" fill="#000000" text-anchor="start" style="white-space: pre;" direction="ltr">create</text><text x="0" y="34" font-family="Virgil, Segoe UI Emoji" font-size="16px" fill="#000000" text-anchor="start" style="white-space: pre;" direction="ltr">replicaset</text></g><g transform="translate(1100.735462098689 112.00447591145803) rotate(0 64.115234375 27.273648822035284)"><path d="M0.737829165533185 -0.24835054762661457 L128.10118426568815 -0.6913422215729952 L128.45009119994947 55.94257915077279 L-0.36638997308909893 56.536906660176015" stroke="none" stroke-width="0" fill="#228be6"></path><path d="M0.16228712908923626 1.7620082665234804 C34.1464068512618 1.5323230863285793, 63.785935432687296 -1.2075646876620518, 126.40291888825604 -1.659376246854663 M-0.45576345082372427 -0.15753471199423075 C39.70873315756801 1.829289051557535, 79.5773399115286 0.07892740037536039, 127.96691278461375 -0.1100051635876298 M127.27329976670453 0.496007340028882 C126.92931476196605 17.70078280808313, 128.1063315566476 33.51946704383757, 129.34493852965542 55.11803138685892 M127.61587075237193 0.7400564914569259 C127.41383959775715 22.00210247537354, 128.1067771804884 42.306971297119745, 128.98444790486255 53.87508201004485 M128.20892597548672 54.65602910948465 C97.01703621643144 53.01808333350428, 64.22310902756658 52.426583468449195, -0.7173467148095369 55.504027072913146 M128.02808208111682 55.14040398003081 C100.58495759464684 54.71063316544055, 72.43658046077695 53.678344405493725, -0.44171108957380056 54.71129282714347 M1.4688605796545744 53.916338150031066 C-1.292957380972724 38.26958416882483, -1.6193699991329717 20.488325869381285, -0.356507645919919 -0.9805762004107237 M-0.5934885954484344 54.259306752695835 C0.02974125868826294 42.88818338548712, -1.1748068916127168 29.581550336576736, 0.9947407329455018 -0.8700799876824021" stroke="#000000" stroke-width="1" fill="none"></path></g><g transform="translate(1107.8434653726013 123.18488029776199) rotate(0 56.5 16.5)"><text x="56.5" y="23" font-family="Virgil, Segoe UI Emoji" font-size="25.749191097166392px" fill="#000000" text-anchor="middle" style="white-space: pre;" direction="ltr">scheduler</text></g><g><g transform="translate(1143.19921875 251.4133300781259) rotate(0 -1.7167265461733905 -38.26120032758445)"><path d="M0.040104540064930916 -0.9137465257197619 C-0.1715791491069619 -13.899391736462713, -2.137806758482369 -64.88146467395126, -2.3897770840068007 -77.7433332581073 M-1.397979305740446 1.2209326029382646 C-1.6923352398187643 -11.586646485868844, -3.391359272033336 -63.23484629267827, -3.473557632411703 -76.27418531114236" stroke="#000000" stroke-width="1" fill="none"></path></g><g transform="translate(1143.19921875 251.4133300781259) rotate(0 -1.7167265461733905 -38.26120032758445)"><path d="M5.864195958543775 -48.740005551825334 C4.885779393780058 -52.9864847806354, 2.071573260477514 -59.049019305792584, -4.425844812760934 -76.12866794886068 M7.898458963092622 -48.8305129743992 C4.695876220809648 -57.64632318873712, 1.2755692628568287 -64.90072951093428, -4.42133069503574 -76.22769123604522" stroke="#000000" stroke-width="1" fill="none"></path></g><g transform="translate(1143.19921875 251.4133300781259) rotate(0 -1.7167265461733905 -38.26120032758445)"><path d="M-14.652326852042606 -48.301491984728244 C-11.390729486467563 -52.64546594327082, -9.964298495852262 -58.798638483901755, -4.425844812760934 -76.12866794886068 M-12.618063847493758 -48.39199940730211 C-9.393084735229165 -57.34555250568137, -6.38290338658432 -64.73740201898532, -4.42133069503574 -76.22769123604522" stroke="#000000" stroke-width="1" fill="none"></path></g></g><g><g transform="translate(1178.5239038644609 175.85473632812545) rotate(0 1.2083540642508979 36.91825615024209)"><path d="M0.09968727417290202 0.004411600157618434 C0.29600603670085845 12.21380448552477, 1.0977326005799266 61.1823970855528, 1.351884843942844 73.47174335531936 M-1.3071156362257899 -1.0388762550987303 C-0.7307100052924914 11.33374142453703, 3.3956273813833984 62.191361249940236, 3.7238237647275856 74.87538855558307" stroke="#000000" stroke-width="1" fill="none"></path></g><g transform="translate(1178.5239038644609 175.85473632812545) rotate(0 1.2083540642508979 36.91825615024209)"><path d="M-8.120246575501316 46.236152192588534 C-4.775585994461095 55.34833361507793, -0.600431074186794 65.06845718555694, 2.9278720574389627 73.49052602646918 M-8.072915789027267 46.94054608141222 C-5.658516297474154 54.632556652337584, -2.740242780675543 62.189691896960134, 4.193693474301272 73.95613938698591" stroke="#000000" stroke-width="1" fill="none"></path></g><g transform="translate(1178.5239038644609 175.85473632812545) rotate(0 1.2083540642508979 36.91825615024209)"><path d="M12.367571614543767 45.06597776221609 C9.27096104784191 54.563196128436054, 7.002744493371518 64.65133685306968, 2.9278720574389627 73.49052602646918 M12.414902401017816 45.77037165103978 C9.397251499566163 53.79959918219225, 6.885375146017252 61.66688080123247, 4.193693474301272 73.95613938698591" stroke="#000000" stroke-width="1" fill="none"></path></g></g><g transform="translate(1183.0703125 180.3586425781259) rotate(0 68 10)"><text x="0" y="14" font-family="Virgil, Segoe UI Emoji" font-size="16px" fill="#000000" text-anchor="start" style="white-space: pre;" direction="ltr">bind Pod to Node</text></g><g transform="translate(10 287.0422363281259) rotate(0 131.337890625 80.4609375)"><path d="M-1.832983834668994 0.03731669299304485 L263.9898687172681 0.3161324989050627 L262.7076358962804 162.57750560157 L-1.0552316140383482 159.83663375489414" stroke="none" stroke-width="0" fill="#fa5252"></path><path d="M0.9685156075964547 0.9198271634685937 C64.29761526412503 0.08413493079692058, 131.55215731753816 2.7939770565879147, 263.8054369313553 -0.736428828822139 M0.2623682087307142 0.320159265306514 C101.50598543090285 0.33306411145360404, 205.09075394700392 0.5339372238532997, 262.51668940551156 0.2925741207915908 M262.74726046435535 -1.6268438529223204 C259.86428295215546 36.93088568083913, 263.20628349622666 75.42008990026953, 264.1947098504752 161.1243485379964 M262.90329254511744 0.1977266138419509 C263.9154971519094 60.269354752772784, 263.4643126109224 122.29191730179883, 261.78969863895327 160.82815716322511 M262.2029856989435 160.08418207794935 C180.91642170846646 158.97810645460945, 98.92860532212167 159.48172004453522, 0.8122413486737218 159.72390376672874 M263.4144282835534 161.57356149989457 C189.66621252770383 158.4889213231224, 116.63924651923482 159.56783740833663, 0.2925595656064614 161.24201570200006 M1.8935697209089994 161.42587299831212 C1.5419268012889369 110.55236590357526, 1.7338914872058375 64.35801415856986, 0.37919278256595135 0.014807241037487984 M-0.10654478427022696 161.89859349187464 C-0.8150749974585778 123.36632829751323, -0.15587173632156914 83.46486811871581, 0.08563409093767405 -0.35679634753614664" stroke="#000000" stroke-width="1" fill="none"></path></g><g transform="translate(23.67578125 299.8586425781259) rotate(0 17 10)"><text x="0" y="14" font-family="Virgil, Segoe UI Emoji" font-size="16px" fill="#000000" text-anchor="start" style="white-space: pre;" direction="ltr">etcd</text></g><g><g transform="translate(346.765625 282.5695800781259) rotate(0 -37.25002615854146 19.242926046103094)"><path d="M0.766449211165309 -1.130127839371562 C-11.648091314112149 5.056051492566864, -61.654872554416464 31.60630076316496, -74.1079655546695 38.0259605485946 M-0.29030368231236925 0.8909510996192695 C-12.93113403779765 7.210736469651263, -62.84047334256271 33.36065615517398, -75.26650152824818 39.61597993157804" stroke="#000000" stroke-width="1" fill="none"></path></g><g transform="translate(346.765625 282.5695800781259) rotate(0 -37.25002615854146 19.242926046103094)"><path d="M-56.78243007790349 16.92140498218768 C-61.319123545877495 24.61533625372353, -69.13670678918047 33.323482262156155, -76.51495167523622 39.67893467217684 M-55.00446605682425 17.02266649828934 C-59.67904859124199 22.094742940101618, -65.24499383272122 29.26391293319609, -76.14457998055964 39.89100840527564" stroke="#000000" stroke-width="1" fill="none"></path></g><g transform="translate(346.765625 282.5695800781259) rotate(0 -37.25002615854146 19.242926046103094)"><path d="M-47.38928187517144 35.16664461413966 C-55.178994165007666 36.87033120099203, -66.11140609234295 39.52823776615498, -76.51495167523622 39.67893467217684 M-45.6113178540922 35.26790613024132 C-52.61183751282479 35.91835752308198, -60.473601296893705 38.62813237442364, -76.14457998055964 39.89100840527564" stroke="#000000" stroke-width="1" fill="none"></path></g></g><g transform="translate(148.375 399.5051269531259) rotate(0 13 10)"><text x="13" y="14" font-family="Virgil, Segoe UI Emoji" font-size="16px" fill="#000000" text-anchor="middle" style="white-space: pre;" direction="ltr">pod</text></g><g transform="translate(151.37890625 375.4660644531259) rotate(0 44.60546875 23.798828125)"><path d="M63.03026216503082 2.014065496050627 C71.187023969344 3.5532225720706476, 79.83768363591635 8.212931070733042, 84.14502541340141 12.389632953717669 C88.45236719088648 16.566334836702296, 90.49720692503954 22.307029130362043, 88.87431282994118 27.074276793958397 C87.25141873484282 31.84152445755475, 81.00499126986638 37.44965821500627, 74.40766084281123 40.9931189352958 C67.81033041575607 44.53657965558533, 58.22473486411176 47.713278664768524, 49.29033026761024 48.33504111569559 C40.355925671108714 48.95680356662265, 28.50314266263861 47.59221131902815, 20.801233263802093 44.723693640858166 C13.099323864965577 41.85517596268818, 6.226181891011267 35.742415203598604, 3.078873874591146 31.12393504667567 C-0.06843414182897511 26.505454889752734, -0.6182708543589333 21.355055032459635, 1.9173851652813667 17.012812699320563 C4.453041184921666 12.67057036618149, 10.953096120973285 7.861640190893995, 18.292809992432947 5.070481047841227 C25.632523863892608 2.2793219047884588, 37.25374427787208 0.2200860806866789, 45.95566839403934 0.26585784100395315 C54.657592510206605 0.3116296013212274, 65.05126871118908 3.874616928746785, 70.50435468943651 5.3451116097448725 C75.95744066768394 6.81560629074296, 79.17103273987884 8.802013072097903, 78.6741842635239 9.08882592699248 M29.23778646030185 1.6419033254540878 C36.76447713852533 -0.35742236277984496, 47.95734482175765 -0.6332249365386504, 56.70206861010149 0.7125034599266762 C65.44679239844533 2.058231856392003, 76.35137544077449 5.872158424041844, 81.70612919036489 9.716273704246047 C87.06088293995529 13.56038898445025, 89.29415567946667 18.852787717695566, 88.83059110764391 23.777195141151893 C88.36702653582115 28.70160256460822, 85.03555593253708 35.14979377911872, 78.92474175942834 39.262718244984 C72.81392758631961 43.375642710849284, 61.094410863396796 47.5600062427723, 52.16570606899153 48.45474193634358 C43.23700127458627 49.34947762991486, 33.50997813954174 47.121903459724116, 25.352512992996772 44.63113240641168 C17.195047846451807 42.140361353099244, 7.179270328932505 37.53434387957786, 3.220915189721758 33.51011561646897 C-0.7374399494889894 29.485887353360084, -0.614990219256045 24.937788230134565, 1.6023821577322863 20.48576282775835 C3.8197545347206177 16.033737425382135, 11.875595052682545 9.731728699457188, 16.525149451651746 6.797963202211687 C21.174703850620947 3.8641977049661853, 27.363807906978188 3.593456181093963, 29.499708551547492 2.883169844285341 C31.635609196116796 2.1728835074767185, 29.356333338969065 2.3908338665757864, 29.340553319067578 2.536245181359952" stroke="none" stroke-width="0" fill="#ced4da"></path><path d="M47.31420731338443 0.3893324276509489 C55.705744858197995 0.5807832968309589, 66.9585087656269 3.170883650479871, 73.9076701058896 6.463875143740449 C80.85683144615228 9.756866637001027, 87.26940985490795 15.494515495787976, 89.00917535496055 20.147281387214413 C90.74894085501315 24.80004727864085, 88.77849006830087 30.140242470856236, 84.34626310620517 34.38047049229907 C79.91403614410947 38.6206985137419, 70.90575174344292 43.63117327799794, 62.41581358238638 45.588649515871396 C53.925875421329835 47.54612575374485, 42.10366678614658 47.24024888840137, 33.40663413986591 46.12532791953981 C24.709601493585232 45.010406950678245, 15.930478720474305 42.684845213171315, 10.233617704702333 38.899123702702035 C4.536756688930359 35.113402192232755, -0.49750687842582525 28.378387030626374, -0.7745319547659335 23.410998856724124 C-1.0515570311060418 18.443610682821873, 3.056528108960145 12.902627221407649, 8.571467246661683 9.094794659288528 C14.086406384363222 5.286962097169408, 24.958400150166785 1.9882427579872495, 32.315102871443294 0.564003484009401 C39.67180559271981 -0.8602357899684474, 48.296410565124006 0.2541413293262759, 52.711683574320745 0.5493590154214374 C57.12695658351748 0.8445767015165988, 58.739375438123716 1.9633933191523283, 58.80674092662371 2.33530960058037 M64.89380886315595 1.2686691562050214 C72.68641434961793 2.992017943388656, 80.20538415785687 9.646229304117767, 84.28032577716729 13.981314536789657 C88.35526739647771 18.316399769461547, 90.94357094042597 22.549072624679482, 89.34345857901846 27.27918055223637 C87.74334621761095 32.009288479793256, 81.94788490166482 38.73336812221825, 74.67965160872222 42.361962102130974 C67.41141831577963 45.990556082043696, 55.02987448589071 48.74630062921023, 45.73405882136289 49.050744431712715 C36.43824315683508 49.3551882342152, 26.023832008018488 46.99428985248387, 18.904757621555348 44.188624917145866 C11.785683235092208 41.382959981807865, 5.645298301444713 36.83016321758886, 3.019612502584046 32.216754819684695 C0.39392670372337824 27.60334642178053, 0.0207860223529166 21.41581261489869, 3.150642828391341 16.50817452972087 C6.2804996344297646 11.600536444543048, 14.040703424805255 5.450508148397372, 21.798753338814592 2.7709263086177707 C29.55680325282393 0.09134446883816993, 42.48283205748543 0.727144996074589, 49.69894231244736 0.43068349104326487 C56.91505256740928 0.13422198601194069, 62.87953841806246 0.5975754433663536, 65.09541486858616 0.9921572784298256 C67.31129131910986 1.3867391134932976, 63.54356488322589 2.058166489969009, 62.99420101558955 2.7981745014240964" stroke="#000000" stroke-width="1" fill="none"></path></g><g transform="translate(135.5625 381.6809082031259) rotate(0 44.60546875 23.798828125)"><path d="M42.766706150864785 0.2824727493302568 C51.375636823556626 -0.3384261035179422, 63.091172267706185 1.8724932448635143, 70.37709418396753 4.62482642453886 C77.66301610022887 7.377159604214205, 83.74620891729946 12.170548031935109, 86.48223764843286 16.79647182738233 C89.21826637956626 21.42239562282955, 89.93762321760848 27.967811550490143, 86.79326657076794 32.380369197222194 C83.6489099239274 36.79292684395424, 75.33271900610309 40.809240953043705, 67.61609776738968 43.27181770777463 C59.89947652867626 45.734394462505556, 49.301199905686865 47.46858087504958, 40.493539138487435 47.155829725607745 C31.685878371288005 46.84307857616591, 21.28578232776643 44.513232630533224, 14.770133164193116 41.39531081112361 C8.2544840006198 38.27738899171399, 2.852908942808148 33.256166999823414, 1.399644157047554 28.44829880915006 C-0.05362062871304052 23.640430618476707, 1.7104613684191605 16.938293539928043, 6.050544449629548 12.548101667083476 C10.390627530839936 8.157909794238908, 20.203602945063043 4.156865554803312, 27.44014264430988 2.10714757208266 C34.67668234355671 0.057429589362007594, 44.7390239663488 0.451079522791345, 49.46978264511056 0.24979377075956322 C54.20054132387232 0.048508018727781405, 56.13986017825123 0.5373344688008455, 55.824694716880444 0.8994330598919689 M49.799018455933094 0.5619605090643951 C58.01508414171914 0.6893759076555112, 67.07553505606785 3.172852455828929, 73.6344648085526 6.196901076929315 C80.19339456103734 9.2209496980297, 87.2548222542851 14.112355216245945, 89.15259697084151 18.70625223566671 C91.05037168739793 23.300149255087476, 89.39227253913076 29.41479449360787, 85.02111310789107 33.760283193453915 C80.64995367665138 38.10577189329996, 71.27978059559791 42.37762511314185, 62.92564038340336 44.77918443474297 C54.57150017120882 47.18074375634409, 43.67372540020604 49.427998371737665, 34.89627183472379 48.169639123060634 C26.11881826924154 46.9112798743836, 15.946685033269137 41.43179169220418, 10.260918990509857 37.22902894268077 C4.575152947750579 33.02626619315736, 0.811571192166023 27.549437395224498, 0.7816755781681195 22.953062625920186 C0.751779964170216 18.356687856615874, 4.688804456827018 13.313082871748241, 10.081545306522436 9.6507803268549 C15.474286156217854 5.988477781961558, 26.914911081635296 2.634770505416224, 33.13812067634063 0.9792473565601405 C39.36133027104596 -0.676275792295943, 44.761472396583294 -0.13178518085363677, 47.420802874754415 -0.2823585662816015 C50.080133352925536 -0.4329319517095662, 49.00259172293418 -0.17595233895780932, 49.09410354536734 0.07580704399235216" stroke="none" stroke-width="0" fill="#ced4da"></path><path d="M45.00552336100787 -0.4624176705025569 C53.63207794778163 -0.7229669986197091, 64.69264819779413 2.601238897628024, 71.85727770754474 5.759356623830527 C79.02190721729535 8.91747435003303, 85.76900127295832 13.7349706455709, 87.99330041951151 18.486288686712463 C90.2175995660647 23.237606727854025, 88.95523662895256 30.039460919119595, 85.20307258686393 34.2672648706799 C81.45090854477529 38.49506882224021, 73.47185681823417 41.62070852431896, 65.48031616697966 43.85311239607431 C57.48877551572516 46.08551626782966, 46.22701299969932 48.38353636856718, 37.2538286793369 47.66168810121203 C28.280644358974477 46.93983983385688, 17.82091681866761 43.15296193964792, 11.641210244805144 39.522022791943414 C5.46150367094268 35.891083644238904, 0.7667075581388545 30.75272857061416, 0.17558923616211075 25.876053214984974 C-0.415529085814633 20.99937785935579, 3.282963720845891 14.304253573168431, 8.094500312944682 10.261970658168304 C12.906036905043472 6.219687743168177, 22.00659987131699 3.252384773336928, 29.044808788754857 1.6223557249842173 C36.08301770619272 -0.007673323368493579, 45.691986946109374 0.4619608666169442, 50.323753817571884 0.48179636805203785 C54.955520689034394 0.5016318694871315, 56.75478916550415 1.4812951235725613, 56.8354100175299 1.7413687335947792 M31.057779243829145 1.4884492834341998 C39.22465739182721 -0.07151651264902292, 52.92665485000987 -1.1248715500721582, 61.37786103391891 0.5154883031816127 C69.82906721782796 2.1558481564353835, 77.30876222340797 7.026546659943033, 81.76501634728339 11.330608402956825 C86.22127047115882 15.634670145970617, 89.12545050032058 21.660441503359277, 88.11538577717145 26.339858761264363 C87.10532105402233 31.01927601916945, 81.99357870087144 35.784933973140255, 75.70462800838862 39.40711195038734 C69.41567731590581 43.02928992763442, 59.16262881649585 47.131680806143905, 50.38168162227461 48.07292662474686 C41.60073442805338 49.01417244334982, 30.891116956237735 47.3977827846633, 23.018944843061234 45.054586862005095 C15.146772729884734 42.71139093934689, 6.537885570770074 38.50719942682248, 3.148648943215619 34.01375108879765 C-0.24058768433883548 29.520302750772814, 0.07599376553580539 23.187216168624524, 2.683525077734508 18.09389683385609 C5.29105638993321 13.000577499087655, 13.924005706531705 6.207713433525466, 18.793836816407836 3.453835080187037 C23.663667926283967 0.6999567268486078, 29.436391179627343 2.137618085575351, 31.902511736991293 1.5706267138255114 C34.368632294355244 1.0036353420756718, 33.14556677535604 -0.30364896058163104, 33.59056016059153 0.051886849687999614" stroke="#000000" stroke-width="1" fill="none"></path></g><g transform="translate(116.76953125 385.7062988281259) rotate(0 44.60546875 23.798828125)"><path d="M34.25265581591779 -0.27654973081967427 C42.60827600601563 -1.7441384975714522, 55.46557476400768 -0.6448119257955178, 63.90068336931918 1.7240888071569103 C72.33579197463068 4.092989540109338, 80.69438216344136 9.530656265709375, 84.86330744778681 13.936854666894893 C89.03223273213226 18.343053068080412, 90.6535494728973 23.70655967113837, 88.91423507539184 28.16127921427002 C87.17492067788639 32.61599875740167, 81.43612339323509 37.42979554248867, 74.4274210627541 40.66517192568481 C67.41871873227312 43.90054830888095, 56.093828329503886 47.196300727276174, 46.86202109250595 47.57353751344688 C37.63021385550801 47.950774299617585, 26.473307685470957 45.78400455051891, 19.03657764076647 42.928592642709056 C11.599847596061984 40.0731807348992, 5.056964164103842 34.84572122555335, 2.241640824279038 30.44106606658777 C-0.5736825155457654 26.036410907622187, -1.0697133394545393 20.783822459411944, 2.1446376018176494 16.50066168891557 C5.358988543089838 12.217500918419196, 14.67550874548666 7.326137966272986, 21.52774647191217 4.742101443609521 C28.37998419833768 2.1580649209460554, 38.52840097347975 1.6897463253260976, 43.258063960370706 0.9964425529347807 C47.98772694726166 0.3031387805434639, 50.057782173777625 0.49297251961017946, 49.90572439325792 0.58227880926162 M63.87171825374298 2.945142265663094 C71.56951210796608 4.97736403942756, 80.13771719464773 9.475950689317093, 84.09326398240925 14.008106308959682 C88.04881077017077 18.54026192860227, 89.30504893519297 25.24968410808482, 87.60499898031213 30.13807598351863 C85.90494902543129 35.02646785895244, 80.79201899025853 40.2787045507086, 73.89296425312425 43.33845756156252 C66.99390951598997 46.39821057241644, 55.347319408335196 48.40751623233891, 46.210670557506475 48.49659404864212 C37.074021706677755 48.58567186494534, 26.586080331664178 46.66214550462217, 19.073071148151904 43.87292445938181 C11.56006196463963 41.083703414141446, 3.743928544394471 36.42232450127405, 1.1326154564328235 31.76126777719996 C-1.4786976315288243 27.100211053125875, 0.11452942481205142 20.367494003363316, 3.4051926203820173 15.906584114937282 C6.695855815951983 11.445674226511247, 13.321937639494656 7.7911526318374715, 20.87659462985262 4.995808446643764 C28.43125162021058 2.2004642614500565, 41.36469059180274 -0.24720612906575745, 48.733134562529784 -0.8654809962249637 C56.10157853325683 -1.4837558633841699, 62.43993091665742 0.6091047532537353, 65.08725845421486 1.2861592436885267 C67.7345859917723 1.9632137341233182, 64.88225243345566 2.763809446692474, 64.61709978787445 3.1968459463837853" stroke="none" stroke-width="0" fill="#ced4da"></path><path d="M59.66492906475551 2.3733830701448717 C67.91949746576911 3.750604338596747, 76.41225514841696 8.041461674618404, 81.43874181002386 12.02047663700983 C86.46522847163075 15.999491599401257, 90.43191408435416 21.46380820710122, 89.82384903439684 26.247472844493434 C89.21578398443953 31.031137481885647, 84.2146410905536 37.21241801290677, 77.79035151027996 40.7224644613631 C71.36606193000632 44.23251090981944, 60.4286210956796 46.555915982699204, 51.278111552755036 47.307751535231446 C42.12760200983047 48.05958708776369, 30.735335461795696 47.43897679691081, 22.887294252732566 45.23347777655657 C15.039253043669436 43.02797875620233, 7.915642914915859 38.61272638868793, 4.189864298376257 34.074757413106 C0.4640856818366559 29.536788437524066, -1.5049261161059029 22.764026416359293, 0.53262255349496 18.00566392306497 C2.570171223095823 13.247301429770644, 9.026096998268788 8.611333198868975, 16.415156315981434 5.524582453340059 C23.80421563369408 2.437831707811144, 37.30432127903391 0.13087522933065665, 44.86697845977084 -0.5148405501085236 C52.429635640507776 -1.160556329547704, 58.34834142481984 1.161598899698733, 61.79109940040303 1.6502877767049782 C65.2338573759862 2.1389766537112234, 65.73397621489909 1.9157331532704607, 65.52352631326994 2.4172927119289476 M43.87079965010394 -0.9059929175800328 C52.468835701136705 -0.9863019995234138, 62.78294891750558 2.651937454001642, 70.14688799934476 5.49108803405257 C77.51082708118393 8.330238614103498, 85.50486718348628 11.342200401213615, 88.05443414113901 16.128910562725537 C90.60400109879174 20.915620724237456, 88.78888477739035 29.36239699073008, 85.44428974526113 34.2113490031241 C82.09969471313191 39.06030101551812, 75.74056176714612 42.95952828134254, 67.98686394836369 45.22262263708965 C60.23316612958127 47.48571699283676, 48.03807906351637 48.597721327102306, 38.92210283256661 47.78991513760673 C29.806126601616846 46.98210894811115, 19.936484713134003 44.014974759589734, 13.291006562665114 40.375785500116166 C6.645528412196224 36.7365962406426, 0.0743287332838829 30.94024202222073, -0.9507660702467291 25.95477958076533 C-1.975860873777341 20.96931713930993, 2.0795470772719282 14.5334343728792, 7.140437741481442 10.463010851383764 C12.201328405690955 6.392587329888328, 23.287559900429034 3.523772411069385, 29.414577915010355 1.5322384517927112 C35.54159592959167 -0.4592955074839622, 41.485585418331425 -1.144216129383004, 43.90254582896936 -1.486192904276276 C46.31950623960729 -1.828169679169548, 43.758481937923804 -1.4126352316193458, 43.91634037883798 -0.5196221975669211" stroke="#000000" stroke-width="1" fill="none"></path></g><g transform="translate(148.375 399.5051269531259) rotate(0 13 10)"><text x="13" y="14" font-family="Virgil, Segoe UI Emoji" font-size="16px" fill="#000000" text-anchor="middle" style="white-space: pre;" direction="ltr">pod</text></g><g transform="translate(23.6171875 335.4719238281259) rotate(0 44.60546875 23.798828125)"><path d="M45.54355459631434 0.9822081749603164 C54.13933372299315 0.655163192139802, 64.90658127145575 2.750190921629447, 71.8448266686438 5.631464339621775 C78.78307206583186 8.512737757614104, 85.07715144604468 13.763874127721799, 87.17302697944265 18.269848682914287 C89.26890251284063 22.775823238106774, 87.926827117407 28.247858889685222, 84.42007986903165 32.667311670776705 C80.9133326206563 37.08676445186819, 73.9037783461916 42.35601122103201, 66.13254348919055 44.78656536946319 C58.361308632189505 47.21711951789437, 46.96325709552576 48.03083683833763, 37.79267072702535 47.25063656136376 C28.622084358524944 46.4704362843899, 17.282583543098482 43.805854927130504, 11.1090252781881 40.105363707620015 C4.935467013277715 36.404872488109525, 1.5002847419115128 29.90980640141161, 0.7513211375630462 25.047689244300823 C0.0023575332145794325 20.185572087190035, 1.8269281933062507 14.925206960487342, 6.615243652097298 10.932660764955294 C11.403559110888345 6.940114569423246, 22.40718774293194 2.8445433554186, 29.481213890309334 1.0924120711085337 C36.55524003768673 -0.6597192132015326, 45.41020188444974 0.3957494232396351, 49.05940053636167 0.4198730590948969 C52.7085991882736 0.44399669495015875, 51.37828261047236 0.8805826558441125, 51.37640580178091 1.2371538862401046 M45.8066548723251 -1.3904888869461516 C54.08360670236499 -1.4580975711607465, 65.2955495440961 3.9107557879870574, 72.311829941163 7.158501490262218 C79.32811033822989 10.406247192537379, 86.04083859003906 13.487297562579787, 87.90433725472641 18.09598532670481 C89.76783591941377 22.704673090829832, 87.25340077035706 30.136029376906755, 83.49282192928712 34.81062807501236 C79.73224308821717 39.485226773117965, 73.24222607178194 43.921959462492474, 65.34086420830674 46.143577515338436 C57.43950234483153 48.3651955681844, 45.254809512034136 49.242683924300295, 36.08465074843588 48.140336392088116 C26.914491984837618 47.03798885987594, 16.290951155732554 43.19739754997565, 10.319911626717179 39.52949232206538 C4.348872097701804 35.86158709415511, 0.3862424705281017 31.04308984656785, 0.25841357434362777 26.13290502462653 C0.13058467815915384 21.222720202685213, 4.411021428510669 14.370455056395542, 9.552938249610335 10.068383390417475 C14.694855070710002 5.766311724439407, 24.630966483164862 2.123036816658866, 31.109914500941628 0.32047502875812484 C37.58886251871839 -1.482086759142616, 45.951125267976614 -0.9779306566382573, 48.42662635627093 -0.7469873369869688 C50.902127444565245 -0.5160440173356804, 46.41806748534616 0.9365696784445241, 45.96292103070753 1.7061349466658555" stroke="none" stroke-width="0" fill="#ced4da"></path><path d="M54.874584352660065 0.9862428584810523 C63.10580243064387 1.5760019093341184, 72.66320506960916 4.677841958147802, 78.3887103462844 8.314737889156612 C84.11421562295963 11.951633820165423, 88.99430213350324 17.85252685970405, 89.22761601271145 22.807618444533915 C89.46092989191966 27.76271002936378, 85.36174874285501 34.131627104764775, 79.78859362153364 38.045287398135805 C74.21543850021226 41.958947691506836, 64.347533011395 44.82515193125148, 55.7886852847832 46.289580204760085 C47.2298375581714 47.75400847826869, 36.5707873690459 48.497048405766755, 28.435507261862814 46.83185703918744 C20.300227154679725 45.166665672608126, 11.487113533142216 40.724496014075626, 6.977004641684651 36.29843200528419 C2.4668957502270867 31.87236799649276, 0.3355242174065147 25.27207758543625, 1.3748539131174269 20.27547298643885 C2.4141836088283393 15.278868387441449, 7.03616140726303 9.516389806459477, 13.212982815950124 6.318804411299794 C19.389804224637217 3.1212190161401114, 30.77334567648678 2.058437124113405, 38.43578236523999 1.0899606154807522 C46.09821905399319 0.12148410684809952, 55.431941991800066 0.2623785402450617, 59.18760294846936 0.5079453595038785 C62.94326390513866 0.7535121787626954, 61.40531340409922 2.01105571929391, 60.96974810525575 2.563361531033653 M36.41785314644308 0.11456961577926705 C44.64936996850293 -1.2289693632462126, 56.51253908376497 0.4012247487788927, 64.60588840647168 2.4102888174109545 C72.69923772917838 4.419352886043017, 80.85106661906386 7.768265665325198, 84.97794908268332 12.168954027571637 C89.10483154630279 16.569642389818075, 91.09468205802618 23.956336930886405, 89.36718318818848 28.814418990889585 C87.63968431835077 33.67250105089277, 81.35054256813856 38.295915270483974, 74.61295586365709 41.31744638759073 C67.87536915917562 44.33897750469748, 58.271133224070965 46.46750291677071, 48.941662961299684 46.94360569353013 C39.6121926985284 47.41970847028955, 26.619593661913765 46.694853691549085, 18.636134287029396 44.17406304814725 C10.652674912145027 41.65327240474541, 3.6708737306068695 36.36629182490348, 1.0409067119934718 31.818861833119083 C-1.5890603066199258 27.271431841334692, -0.2639930130058521 21.438299500648732, 2.85633217534901 16.8894830974409 C5.976657363703872 12.340666694233066, 14.213548011053984 7.1167260922881574, 19.762857842122646 4.525963413872091 C25.312167673191308 1.9352007354560254, 33.65573494724395 1.9709593193934247, 36.15219116176098 1.3449070269445045 C38.648647376278014 0.7188547344955841, 35.01935583242107 0.6350293237089536, 34.741595129224855 0.7696496591785689" stroke="#000000" stroke-width="1" fill="none"></path></g><g transform="translate(26.22265625 349.5324707031259) rotate(0 42 10)"><text x="42" y="14" font-family="Virgil, Segoe UI Emoji" font-size="16px" fill="#000000" text-anchor="middle" style="white-space: pre;" direction="ltr">deployment</text></g><g transform="translate(123.33203125 302.5656738281259) rotate(0 44.60546875 23.798828125)"><path d="M58.07445274842782 0.286954503072014 C66.65057449252501 1.4367037372742242, 77.16365298820496 7.14413911030933, 82.17896848102238 11.27350746445616 C87.1942839738398 15.40287581860299, 88.93819555967058 20.329321473466177, 88.16634570533238 25.063164627952993 C87.39449585099418 29.79700778243981, 83.44883735001596 36.092662876895304, 77.54786935499318 39.676566391377065 C71.6469013599704 43.26046990585883, 61.53339763957112 45.69908559532353, 52.76053773519566 46.566585714843555 C43.9876778308202 47.43408583436358, 33.02356236424369 47.04864107216569, 24.910709928740427 44.88156710849721 C16.79785749323717 42.71449314482873, 7.891421445099244 37.92203292508305, 4.0834231221761215 33.5641419328327 C0.27542479925299856 29.206250940582343, 0.15082091463049885 23.57443888612731, 2.062719991201689 18.73422115499508 C3.9746190677728794 13.894003423862848, 8.669102165122634 7.616570565533538, 15.554817581603263 4.522835546039307 C22.440532998083892 1.4291005265450765, 35.68124863909152 0.663351771207149, 43.377012490085455 0.17181103802969844 C51.07277634107939 -0.3197296951477521, 58.62367694781654 1.2448604592153576, 61.729400687566866 1.5735911469746036 C64.83512442731718 1.9023218347338495, 62.602086447794974 1.786295579675005, 62.01135492858739 2.144195164585174 M48.54074847552432 -1.234045639158559 C57.18427877028482 -1.1308219377222404, 68.14885783236019 2.8365600649846026, 74.54919098215318 6.082760446111514 C80.94952413194616 9.328960827238426, 85.52479720316097 13.551998347695324, 86.94274737428222 18.243156647602913 C88.36069754540347 22.9343149475105, 86.96256991909954 29.582407350259075, 83.05689200888068 34.22971024555705 C79.15121409866182 38.87701314085503, 71.66046458581066 44.18720009770359, 63.508679912969086 46.12697401939076 C55.356895240127514 48.06674794107793, 43.13309425849192 47.10808358411137, 34.14618397183126 45.86835377568006 C25.159273685170604 44.62862396724876, 15.466946368036368 42.41707537263286, 9.587218193005135 38.68859516880293 C3.7074900179739023 34.960114964972995, -0.9181052978667464 28.437073932475897, -1.1321850783561374 23.49747255270047 C-1.3462648588455284 18.55787117292504, 2.553652085286614 12.882420759804726, 8.30273951006879 9.050986890150364 C14.051826934850965 5.219553020496003, 26.727013131296882 1.8737915385062591, 33.36233947033692 0.5088693347743032 C39.997665809376954 -0.8560528689576528, 45.55486273599771 0.7330207198969448, 48.11469754430902 0.861453667758628 C50.674532352620325 0.9898866156203111, 48.80707510518057 1.0817628466281484, 48.72134832020477 1.2794670219444022" stroke="none" stroke-width="0" fill="#ced4da"></path><path d="M45.5667994534866 -0.9225864081746487 C54.32995402345143 -1.2846083957111578, 65.20377577385418 1.9638573875800671, 72.13868454379819 5.11143387955288 C79.07359331374221 8.259010371525694, 84.86813423593756 13.352614286167215, 87.17625207315066 17.96287254366223 C89.48436991036377 22.57313080115724, 89.50927476771177 28.367077618128416, 85.98739156707683 32.77298342452296 C82.46550836644188 37.178889230917505, 74.33621770668044 41.88099051458579, 66.04495286934099 44.3983073820295 C57.75368803200154 46.91562424947321, 45.22215574777299 48.746511663252086, 36.239802543040135 47.87688462918521 C27.257449338307282 47.00725759511834, 18.06159726208436 42.92195923381634, 12.150833640943866 39.18054517762825 C6.240070019803373 35.439131121440155, 1.66592684412822 30.228384049380253, 0.7752208161971836 25.428400292056676 C-0.11548521173385262 20.6284165347331, 1.8825464077703886 14.326800901210785, 6.806597473357648 10.380642633686794 C11.730648538944909 6.434484366162803, 22.748670671353047 3.397021163281467, 30.31952720972074 1.7514506869127295 C37.89038374808843 0.10588021054399199, 47.39674338975798 0.38558944691066266, 52.231736703563804 0.5072197754743684 C57.06673001736963 0.6288501040380741, 59.557283228488075 2.247310337316352, 59.329487092555674 2.4812326582949638 M64.5353577374868 1.5730737542105722 C72.59373025960589 3.0574512003132197, 80.0639308477881 8.469226164609722, 84.23965092594344 12.969010962086838 C88.41537100409877 17.468795759563953, 91.32218956289097 23.780327622643526, 89.58967820641882 28.57178253907327 C87.85716684994668 33.36323745550301, 81.30339841338416 38.366723495316, 73.84458278711057 41.71774046066528 C66.38576716083698 45.068757426014564, 53.97605836190103 48.45801770957162, 44.8367844487773 48.67788433116896 C35.69751053565357 48.8977509527663, 26.004680251833832 45.94485392506054, 19.00893930836818 43.03694019024935 C12.013198364902529 40.12902645543815, 5.564909582076391 35.93018689264795, 2.862338787983397 31.23040192230177 C0.1597679938904033 26.530616951955583, -0.11986261268100407 19.549382180083214, 2.7935145438102182 14.838230368172226 C5.7068917003014406 10.127078556261237, 12.628696599321966 5.167127407074831, 20.34260172693073 2.9634910508358345 C28.056506854539496 0.7598546945968376, 41.62604323762525 1.4418030347073316, 49.07694530946281 1.616412230738245 C56.52784738130037 1.7910214267691582, 62.40054806557478 3.6773525950878176, 65.04801415795609 4.011146227021314 C67.6954802503374 4.3449398589548105, 65.24396362632338 3.697590682466648, 64.96174186375063 3.619174022339223" stroke="#000000" stroke-width="1" fill="none"></path></g><g transform="translate(128.4375 316.3645019531259) rotate(0 39.5 10)"><text x="39.5" y="14" font-family="Virgil, Segoe UI Emoji" font-size="16px" fill="#000000" text-anchor="middle" style="white-space: pre;" direction="ltr">replicaset</text></g><g transform="translate(1200.38671875 328.2687988281259) rotate(0 112.033203125 144.03125)"><path d="M0 0 C0 0, 0 0, 0 0 M0 0 C0 0, 0 0, 0 0 M-0.2694541647704194 5.95815065433561 C0.6060181141502055 4.119231579154808, 3.5843210934475476 3.017322020553722, 4.691760181220716 0.895062144458037 M-0.2695430848421404 6.465889872287504 C1.9262314479653408 4.002928859758079, 3.1093204733211386 1.9840028163949366, 4.891653129416055 0.32756448163066443 M-1.3220100766886367 13.43176675629574 C5.493196139451185 7.289974697433577, 7.101572401590731 2.969181717624705, 11.073866796445978 0.7227421413257482 M-0.4254184170533313 12.807769012122929 C2.8378396647924333 9.402859442875705, 4.512560847677129 6.329841131413998, 9.927107831043136 0.7207231807604195 M0.016456152261211443 18.51524268174606 C7.671372617720152 9.523058517588797, 12.741820731408044 4.574066269153358, 15.283195754050691 2.180209117655175 M-1.0943785999482731 19.410918777716034 C4.583418499210754 13.846891121547078, 7.246297040116474 9.803174054580461, 16.265903547875066 0.46812481404514816 M0.6312686113826249 25.927497237636803 C6.6205152404630185 19.46175886278788, 11.408202811982724 13.735449597602434, 19.37928188247409 -0.88702929819231 M-0.3195665616356518 24.16286047240263 C7.991573185270453 17.442962245700237, 14.228167726748682 8.401441423730045, 20.28077354961809 -0.9827645901427147 M-1.3022222974757298 29.567974023286453 C5.3475623970542125 23.138332775007306, 13.340576396402756 16.190093959485033, 24.729005560886474 -0.2359942147496401 M-0.1653816904360994 30.000916433286122 C7.854753513838198 21.1746101639636, 16.020675991172855 13.038691401965337, 26.965940456513675 0.8483526058506907 M0.26822165389540586 35.64808894675349 C11.435733062673549 23.31077023186681, 21.491632964727152 12.54710592062942, 30.444960921487606 1.4044738208188896 M-1.0327412757184824 36.86651355475311 C7.473467958160719 28.85243112925332, 14.635208553635545 19.742141612920715, 31.327522570683456 -0.4621578463108058 M-0.8727394312947041 42.11558604109638 C14.465607771602524 27.483982593875883, 27.681385964382322 11.449267947381571, 36.43542785551523 -0.6267992927599231 M-0.3606485443516618 43.254789668690194 C11.357417929487784 28.458754337669433, 23.917223084155623 14.923322160503556, 37.36556614078705 0.07836906342771854 M-0.9887006618083305 47.73116620504193 C10.344779967061047 37.10687741507844, 23.430647461454193 22.38610762104479, 42.84034424516909 1.8515021473496205 M-0.18811974767603346 48.5724722851523 C8.888154687226496 39.220175500877716, 17.677944633912716 29.068777505951406, 42.72876759394609 -0.06502903826991258 M0.38840084455429036 55.598020141425835 C11.13200099395699 41.31556995955944, 23.545987842428996 27.11078672775076, 48.97033373168695 -1.2866397101256801 M0.8444790414300414 54.94866153080325 C10.252336191458356 42.81576867378958, 19.90627383080976 32.0640955266654, 47.87225130382019 1.1764847336512254 M-0.6026862709691017 62.0120049989749 C16.272903378984125 43.46145853072646, 28.03659009576598 25.7905195180019, 52.74267794726855 0.3002470876498826 M0.6532096966261776 61.366256790697975 C13.130554171175993 46.02098616616176, 24.99531968028718 31.33177358618542, 52.712291822530986 -0.46838011914503497 M-1.3726144051692515 67.9911773107476 C18.183440448084756 45.4545285029761, 38.87472989426652 21.394372944604562, 57.62034428315164 -1.7286990605968988 M-0.29077475895649485 67.47273964672307 C18.936459386576505 44.77742220993888, 38.50266936429151 22.74521106818853, 57.7840916487381 0.5203851633962238 M1.337885920163096 72.3524217348024 C21.025191620186078 47.16564175736956, 42.93024269804313 23.21319819580924, 64.04795812153597 0.378150047969676 M-0.5231572396868458 73.93805261826513 C19.716822689697203 49.585277945141286, 39.38585457200708 27.642702880463155, 62.89650345956315 0.510161957938827 M-0.3226710287343195 78.78807979486612 C25.207811803556798 49.48662387442158, 48.854962565310856 23.375131632746793, 68.3908306036593 -0.6849109379235969 M-0.1483836844052604 79.8124779028791 C15.671241717029037 61.07875676517603, 30.244775542128835 43.511496598854094, 68.28980787866577 0.8471308995376958 M-0.5366129946617377 85.39548281877444 C21.902196587170376 62.44402636251289, 42.599114276946224 40.31632866524963, 74.37093086172136 -0.5060975654409958 M0.15900014650989647 85.33742031472877 C30.031838743697794 51.181061221516735, 58.73805742984275 19.47285552280499, 75.29043570816758 -1.087654760143323 M1.1219180386185812 91.52712858025417 C17.998811221316807 69.65663956599518, 38.07188693184555 46.96479513050765, 80.00591378695992 1.8940410641442469 M-0.6878735607817603 91.0768339263691 C24.692283931188918 61.846386445996444, 48.58239636471137 33.62751701404967, 79.4687456967282 0.2531574889506629 M0.4668790493158923 99.32021423736379 C17.26113748202724 76.41066492685265, 38.28902338603192 53.73924448392951, 85.04509226157472 -1.1625543463321435 M-1.1895314706491007 98.72800500718668 C22.069306308099822 73.07497845452586, 43.11362145481112 48.124010980594115, 85.29374677146927 -0.3607072265164959 M0.9196488906394507 104.77326507316175 C16.42058430725446 83.5901813677512, 36.73060898372355 60.51573690303087, 89.9084649268035 -1.1612766481433852 M0.17791381503900539 102.4794307640681 C17.919947900359155 83.74185274545553, 36.796473605363275 63.06982412276892, 89.2908758060504 -0.8057245214898927 M-0.27164879617300386 110.82276323637487 C39.71863601376685 65.30797864232545, 73.8028886114777 24.350923069464514, 95.12268841484607 1.37997111154624 M-0.5991633300578272 109.36869808206828 C21.770034232187985 85.85010045703598, 43.36924334553226 60.149060793690296, 94.69671985259325 -0.5484973943056843 M-1.2522323789217111 114.87268067983887 C23.022732262322762 86.08768796837319, 46.41033258996115 58.71776028045744, 100.26010511694008 1.7609523314635211 M0.9267616461820367 115.09326646285108 C20.4227280515952 93.41318162559303, 39.4422666405278 69.76195353193255, 100.61679390975738 -0.5143295849089569 M-0.6216344663689313 121.64465580228051 C31.484517088616315 84.91573221819638, 61.36731176189089 52.27848428565731, 107.37471541528535 -2.126079785555838 M0.822141242418212 122.14189466647139 C26.05470122546406 91.76396265238347, 52.3690520305738 62.427680209971015, 106.68026315466446 -0.031152216635881302 M1.3462112946945908 126.70752638675827 C24.505120722608122 100.44568782660737, 49.693220100877255 69.73063536512558, 111.94120545111961 -0.9462055907850484 M-1.2289808932181714 127.6054236498158 C45.40090789030912 76.6545939539299, 89.80897909833321 25.81017214934235, 112.19772071097411 -0.6980971544315437 M0.9222931324781172 133.55395834133066 C38.76225467070763 85.97899955435736, 77.72009318270197 42.93693318898835, 117.63486032765212 1.6076939488343882 M0.5131029499040238 133.53465530727095 C25.457796152214765 104.55882078473785, 52.31274791532624 73.07284165154098, 116.15985085181745 -0.5747140664093209 M-0.8581559367806335 140.67707443972446 C30.102652018816386 104.68955741403292, 62.5630429970665 70.88983979690178, 122.55088702309212 1.8915659913609204 M-0.7181625420556088 140.29823121139177 C43.7267285685775 89.14619289411192, 86.74124151383847 38.2876026900349, 121.67550191282561 0.17690831681736086 M-1.4157449058818798 147.09998725977536 C49.23245261843681 88.61123087298282, 101.00724829176937 31.15845417476352, 127.42373730367734 -0.6131854394786345 M0.8030674955245871 145.39341555134203 C33.068684109487045 105.12372024055426, 69.31259047207851 64.09844576645693, 127.4097592051582 0.6500209428034438 M0.2823423203828893 151.34706457331077 C36.45323471262478 109.88657684869048, 70.7600674761548 68.08899488175159, 132.42160213595886 -1.5927667200877909 M-0.4881292244638975 152.55891527405882 C31.516634868086534 117.00213908849987, 63.79009575895119 80.18692743465878, 132.57904079553958 -0.0019796986926841342 M0.5473982961766372 160.18449040086347 C34.43149570335813 119.70253714259047, 67.6530877689449 82.22382633653885, 137.95682083867467 1.8572793130889091 M-0.6849168587022343 158.69230124285656 C36.85747110901821 117.04851858742273, 74.53705419005497 74.63132435609407, 137.17436981740144 0.5619794338479662 M-0.4934940649719487 165.6450649037808 C36.84832288898695 120.73478446493621, 77.12987755856929 75.79954509825104, 142.62840037032944 -1.0507413198370257 M-0.567438706584832 164.88677280829174 C41.831702256538556 118.006457672385, 82.11651821044643 70.88365197030058, 143.3208169222682 0.019708515107414948 M-1.6455754121510708 171.79926630793182 C48.49331499720713 115.67792293016497, 99.16204970961525 56.20139621192527, 147.20751775937413 -0.3797259049105859 M0.237310097732358 171.35879389092042 C45.9298046963402 119.16658891785434, 89.06843907730617 68.52208183382555, 148.07004337315186 0.31298236066115626 M-1.047209008174368 175.84559137298217 C40.75785832743657 131.3140926603287, 80.59536126092519 86.07777055893068, 152.8938014705341 -0.7475456443802669 M0.3212833883991976 176.74713677556375 C49.672356578924806 119.54720272466079, 100.1274058813947 63.20255803229461, 154.19579677637032 -0.11661042465007265 M-1.1198839177550706 183.41486689042594 C38.439770084727854 137.27470581371492, 78.08771139361174 93.18664777960103, 158.0461000166352 -0.46371075866601563 M0.22383666407220737 182.46067547496529 C64.14497924273148 111.0327669813792, 127.56260777421282 38.934157745287806, 159.235771477748 0.6537926169367649 M1.2045310676778798 190.45395261193713 C48.02308543358094 135.40094406625033, 99.80057262033827 75.95470859455509, 163.60362028003775 1.2112924032663719 M-0.3473124667515338 189.93985736970237 C46.21069906447019 136.76586723341933, 90.3589036120943 84.85305070436739, 164.54072027806822 0.39589413299790277 M-0.4540537557427986 194.77189677798444 C67.80247164976655 119.75857547060177, 132.3588479511901 43.60595699592027, 169.5914758956629 0.9608238861488059 M0.8799253840428856 194.78301737274995 C43.102867019691075 147.23272999013878, 83.23552547780453 100.43493528699432, 169.4588515522591 -0.2576437594101543 M0.69594413467496 201.94372822116105 C52.92900971361901 141.48048400703058, 106.44476157447009 80.98912530335748, 174.07622078741298 0.7815420121798046 M-0.22021857484660853 201.3938169055248 C39.61566311864875 153.3443148022826, 80.33516002474903 106.65247041008924, 175.27114069482684 -0.6101320137958988 M0.19430536377830931 206.25244577524595 C60.69102789181025 136.1802764127853, 117.1638822576128 69.6299012774169, 179.28863290666237 1.5859719388600508 M0.41755858886996444 206.37989337453314 C40.72368273327878 160.58675362049703, 83.63298693400282 111.69039430698756, 179.54059640525455 0.5244228820354372 M1.235503780173918 213.27610509521804 C69.34417401204367 131.4230766324581, 138.46863490692735 52.15165979246147, 184.26966541679602 -0.3883501427358177 M-0.26929144342067085 213.44407816082273 C72.80814311020191 128.96971654224015, 144.55243679362846 45.23665668535451, 186.3380817297442 -0.9352902209237297 M0.5682158333479318 221.02771094490944 C48.88734052262675 163.98888477670909, 95.74526128649707 108.7471727177151, 190.7123890201213 -0.7618019898610457 M0.29583190010614957 220.32953343083423 C41.318587394083046 172.54345498936127, 82.60410106911698 123.95410934405858, 191.22639204527735 0.20257411826854865 M0.6197520102782976 226.21858625691087 C66.60121868385856 149.724231355073, 130.11936266927302 77.0697420047936, 196.1478116383528 -0.2755936777402461 M0.2541604147089248 225.15548452771054 C61.59618210179532 155.612558663433, 123.57602314784673 82.94290951240055, 196.14456167547164 0.12705928575993236 M-1.48794984273743 231.55692322225244 C60.065917004850846 164.59879262357617, 117.50037897564714 96.22432836783081, 202.40981041329596 -0.8673035577260251 M-0.7558129640783405 231.60487937516916 C76.25411144049588 143.75629189381442, 150.59197204322308 58.31872507632102, 201.9617448752947 0.5908251842719119 M1.0002271435916008 237.88036981654213 C74.66203449846235 153.49044160032912, 148.8629267999347 69.37436583897002, 206.23667043474936 -0.8357467215932464 M0.8529490304747814 237.0370835545523 C56.85883612236261 172.30421812966495, 113.36198966688197 106.93072082983204, 206.78414396841052 -0.11532336334940471 M-0.753281651624597 243.6930190229978 C47.67238868691628 187.05654819674413, 94.21057035316932 131.77970199998586, 212.9272096273309 0.03872962149302654 M0.569501554996003 244.44681300598398 C67.95456984265778 166.95811703606128, 133.87451088338813 89.54457755802851, 211.90538940588044 -0.32447761297623445 M0.6464809206387072 249.11526543251426 C68.8445148271317 167.4287094839999, 140.42597009927084 86.3854053836931, 218.86141532654221 -0.49020169106094624 M0.023567755978909533 250.86572773941597 C66.21837228574034 173.07096158870488, 132.38162128110335 96.14321109651526, 217.25501114671513 -0.9985101235503357 M-1.077378880960081 256.9831811636983 C80.79780153702232 162.93962637161775, 161.07072496943087 70.31138394025305, 222.1756526386422 -0.6010780747136418 M-0.43942865861323077 255.39388246851803 C85.20082544543364 158.3483615991515, 172.0605971614337 58.23724029377953, 222.803285426561 -0.34323164620536833 M1.087535597574542 262.2949511953753 C73.41976286790452 178.53098330930936, 145.5749378781458 93.56552528375703, 225.73308641289535 0.9440421000189899 M-0.07033569401690833 261.97418678446473 C75.71552556774705 172.84616352503525, 153.17442257046838 84.21144123355022, 226.6222190354851 2.5204191313801374 M-0.16256623716657842 267.6638275123686 C58.74078336298937 201.68610650287889, 115.55116013517305 134.94208964469397, 225.24945695219594 8.341292566073687 M0.49220359330678687 267.5030326921832 C87.39157688418756 168.71171920535994, 174.36362232202111 68.68546411844679, 225.96220637164006 8.704884953852188 M-0.9183203538236802 273.7587238442715 C67.17347633268955 197.55170351565297, 133.26886943788122 123.23003970105255, 226.7210039703472 14.833948451979229 M0.2656511635152663 274.00025331255614 C68.18805114942202 196.95947266692266, 135.2837995058474 119.20688034582334, 226.61953074943207 14.2828216580373 M0.09359113075914582 281.2509984300988 C87.39027790681618 179.05574043484108, 175.50207562764436 77.72752598478753, 226.7546529901168 20.93360003826422 M0.10140729950390359 280.6879679083012 C48.667326374543556 222.74613617975388, 99.82981939909864 164.8576563920544, 225.5015704740285 20.83863394032096 M1.0127698423610485 285.70384247253793 C86.59625943080225 186.1997074480861, 172.68562234211103 87.90565363596065, 226.51118913241328 26.468709138778337 M0.33019316112306774 286.99241443397045 C87.88065644204954 187.97284711410168, 174.36589575036783 87.89696584801332, 226.00315534368906 25.71426963153284 M2.8884890172829385 289.1929694903764 C69.36262552828755 212.9488328309689, 133.98431828833094 136.34572513752786, 225.24415455850087 31.88645009893761 M3.0091898886996487 289.2072712464001 C61.32714520411279 223.06060499597342, 120.7012123044347 154.839415799062, 225.77923832859324 32.725237828718356 M7.1469183753309675 289.18615106512544 C57.446237533399305 232.5773327670808, 107.91775510672028 172.0869143874671, 225.04013266783346 37.439484780517624 M7.562963674847253 290.66690641576486 C88.29524877298422 195.37674625714848, 169.11904099294287 102.46754172661954, 225.56578347784423 39.028957209747155 M13.871150927358569 290.6853776480135 C66.54950953112495 227.96555067860086, 121.04719980724316 168.4756569743614, 227.76290573883367 43.45298253711897 M13.069333598039503 289.4401140873159 C55.78800330738528 239.99760536697073, 98.97401196657768 190.75001110122446, 226.8587812969951 44.70294654750944 M18.316640302561293 289.32249689697744 C73.2086059747157 228.3811432036896, 127.08687518969224 165.87554341292943, 227.52377717550164 51.75728662374889 M18.52806532472475 290.0419433492667 C91.21373538123167 204.25126711378186, 165.51196353321828 118.50275668361141, 226.0680190854043 51.111831536370964 M23.963726278127865 290.39977912953213 C92.48930062247763 206.46054500460716, 163.84529747729925 125.23739881451954, 227.78261105483085 55.15719922999237 M23.60516869004766 289.0131681099554 C97.49191853067853 205.41388876261868, 170.08995861123014 121.1343780285792, 227.00724604862677 56.314207153322116 M27.708266878566306 290.4034813333019 C108.860164781922 198.6315960702424, 187.5276135740668 109.42240373674669, 225.18771882613396 62.5271228905443 M28.619235650300308 290.05583290525175 C103.70836336616478 202.43475281233, 179.11328884883864 114.91732923963771, 226.16014155086464 62.60657076538505 M33.157069109887395 290.56916147321164 C83.44485241002066 237.53133995907118, 130.16435877540135 182.67475941207886, 227.32022464522646 68.54311059239981 M33.78678707023065 290.27169880262255 C74.35704971249002 244.21918027932534, 115.55189000847272 196.93050442179924, 225.32362180227608 69.18931693367907 M38.62211140388315 291.32401220090526 C99.80023275556616 220.50531279667067, 162.4407696063117 150.27042461573916, 227.41815681870506 75.16113848427295 M39.64073662044603 290.4360169074258 C77.23989337376133 246.3744822348166, 115.59845500283771 203.12464875763962, 225.7120972563785 74.4221974197142 M44.072068062405336 290.46390536416334 C85.17658951152741 244.0348216687306, 123.5517292643672 196.57059793654082, 227.4829420482262 82.83207338601483 M43.86322447481662 289.954634469203 C91.91499365972835 235.33932339216446, 140.64818091923613 181.07692768143266, 225.47234620745235 81.94543379168448 M51.49013559154896 290.63753311409425 C98.52011010782721 238.65252880251228, 141.12206485904673 186.3615023937955, 225.15375036468959 87.08381369580408 M50.046284697784 289.965702585745 C112.23675299373782 218.52419399843654, 174.33600515167677 147.33496339801522, 226.0663692778493 86.31686522853329 M56.52253480097828 289.1609307156664 C105.14096129716377 232.44015647432482, 156.51170496821425 170.69202669339805, 225.55756542756413 94.63208400067931 M55.06967379681211 290.28871701050014 C114.07127020596042 222.990541516378, 172.07540576287204 155.66826713521158, 226.61097627044342 93.7644390273609 M61.68386708365247 291.39968253938787 C119.98945652571737 222.1557886290588, 181.82256770374332 154.0937151858741, 227.44308643328725 98.35075194915989 M60.00447546429433 290.3908941026188 C101.38509191618229 244.02916346335658, 142.14662035487052 196.33775814855494, 225.57497507183027 99.86897425908961 M65.01878513239332 290.3453373482775 C122.83219330252808 226.17846869913774, 178.08319422564406 159.06166969006827, 225.58022868846487 105.63925913351247 M65.34580070196418 290.7761841033454 C118.14007275509552 231.78022826727266, 169.90660454782997 172.27916684040852, 226.35810397027763 105.2134995167582 M70.40094957031063 290.18841811449533 C116.87554871411052 235.57555568135484, 166.61612146861563 180.70001346814658, 225.43374866137114 110.68934718034714 M70.8853103404084 289.3845003033118 C116.60730845212967 240.25052692549312, 163.0164378570677 188.35412782327356, 226.00472970817748 111.44606716840816 M75.87667857593755 288.63989117005343 C130.4390021496032 227.69834360558298, 183.58039990089486 163.44121638580728, 226.78667224865302 115.91376036913337 M75.66311129976988 289.4490040808197 C107.49217919224219 254.9465688050428, 141.01735503804878 217.17453758469796, 225.75081032973324 116.82614739217615 M80.53148788980423 288.14168768662574 C135.3247656171775 231.34148996979692, 189.15503339900323 170.41161393765796, 224.88735043728065 123.99762510216094 M81.10958359694318 289.3892429908814 C135.110717151662 227.78471815694564, 188.718933341749 166.23419032056432, 226.25056778346587 124.03880280803601 M86.34322952665066 290.9464039395821 C142.2109593592076 228.31592698991795, 196.59780857126253 164.30543009110463, 227.39106920629624 129.6073281401579 M86.15075082313167 290.5555055750246 C123.99135224337313 245.86793841938223, 160.83002531611154 203.20505517630656, 226.5401599332127 130.71749432429036 M91.51032172645937 289.93741816442173 C131.61056962063537 247.5128452946836, 165.01860955743223 206.8177808284205, 224.78411670002947 134.4151832435563 M91.92123939681368 290.3600966371783 C140.59580080100497 234.1202989387159, 190.168783218852 176.53194071731136, 225.70854714576674 135.13595582716746 M95.57985129961718 291.37406410392146 C126.79305406970313 257.99729268979695, 154.52350241005234 222.5620120972489, 225.26655036055223 143.5252302238136 M96.78696897169549 290.15121299609314 C130.36668729205576 252.63012638699092, 166.02410072178088 213.43648154123682, 225.8205417630516 143.24422027127588 M104.36229683355816 291.56168942708763 C149.40082143833183 237.23776906460148, 195.64967117502584 184.95950847459477, 228.45989980697834 147.49639896427465 M103.2432967218516 290.30729723997655 C132.44448995798143 257.5290120719123, 162.65135432230252 224.25313216455066, 226.3491761280244 148.75369217836482 M107.7881504253006 289.07977086673145 C139.53550351543416 255.77329320440018, 169.8971225863325 218.94975165233996, 227.25680135417463 155.9111219657446 M108.701403310754 290.7098045879475 C135.75250162608347 261.82877054100686, 161.20767540053546 230.97960590393305, 227.13828684150906 155.09708108602564 M111.89578745704432 291.5861866256887 C146.09818865115494 252.46588217555018, 177.1466053706263 217.3920370666083, 225.75636823035046 159.68394013628196 M114.42326641552438 289.5229914166698 C150.67386781163958 246.24585236349748, 189.86689203986964 204.11985635382584, 225.88851911413684 160.739251388645 M117.64426907002701 288.68148135268603 C146.9325591090534 257.8183703914562, 174.77645111059172 224.0591433036033, 227.29013553871505 165.96572250894516 M118.6022916598223 289.38991336119835 C149.8818459407148 254.55106087465344, 180.54007301136454 218.16766687707894, 225.51243221903883 166.4487784181094 M124.34931439644846 290.68368950055924 C148.31905479475932 261.65198437446514, 170.8462973332918 236.63518724432947, 224.64138317050612 171.220294982461 M125.01803484576944 290.488498673197 C155.14651945170297 255.19937370414516, 184.13267829141927 221.53109518140633, 226.57257240487462 173.65582718447385 M128.6223283275464 289.47851196803515 C151.355463061267 261.79281413843614, 175.55848251342002 234.66982350970153, 226.82504900792344 176.75397325966523 M130.19397972202538 290.6629748627207 C155.21919658951674 260.6499900052124, 180.71045812887303 232.61074295620196, 227.28013609876587 178.26293531440214 M135.8063737455206 289.29413945794937 C162.46377578018354 254.1605638999033, 195.23030271787556 221.98124579859703, 226.0267566922047 185.56573948928462 M136.05226021571178 290.47994205643323 C165.9283995634804 254.8768636094852, 195.81792399230815 221.38556423737035, 226.65274767437214 184.77643969294922 M138.91519929160876 291.55142911902874 C169.75264539703733 256.7675114388293, 194.1446865999751 228.25125115712947, 224.38272882655926 189.87677520437762 M141.07143820048822 289.3597996393895 C160.15390676562677 265.12256515266813, 181.6050029382546 240.1110613271324, 226.51312265482463 192.11725940200165 M145.41315256902016 290.39343748433174 C166.84725588229867 269.32782278620226, 184.53640593125573 244.43997026287494, 228.19910988919628 196.20709006300274 M144.28516669948584 291.38752919347615 C171.91511350498948 258.8894632879905, 201.42927394953537 227.5394787624304, 225.92714062575442 195.97877446094606 M151.43450305596406 289.7620492119169 C170.83921946181036 266.84672309124676, 192.640264679042 241.76564995347547, 224.17128914635356 204.45215058888678 M149.7202627983358 289.67057323807984 C168.32162773616716 268.22923636712727, 186.61826046013985 248.06424740333824, 226.64191814832117 204.18470456733738 M154.0027650186782 290.47460582551093 C184.0921238285809 257.6119492746636, 211.14064712870913 227.16558298044123, 228.16381385523084 209.4124131098654 M155.83478055819768 289.69671397075535 C173.01232583892053 271.0093521191077, 188.21236427190303 251.94599910189316, 226.0844719621465 209.4998920353394 M159.81061071436233 291.75343865294957 C176.46369975430684 273.4309976313935, 194.26416369179495 252.83272180982462, 226.14941703206583 215.64350039966544 M160.51667421869314 290.1448562056666 C181.91915089296523 267.22652111913334, 201.1788968131104 243.88940098423367, 225.51949675338997 214.76172843750706 M166.15889815925422 290.07604546795966 C183.29583506768233 269.92488587563935, 202.36501582506935 246.99804243387018, 226.98893065506783 222.98573461634538 M167.2415759659818 290.01645401536854 C189.92948342337007 263.4061929063058, 212.0034673336075 238.01325543501292, 225.0480283576828 221.690937543227 M170.3926433605536 287.9499138483768 C191.1327171566141 266.6240422930739, 211.34912610034814 245.7022336733302, 226.6506085774461 225.64076604296366 M172.72751816468528 290.6915840890249 C192.84891182294132 265.770556576278, 215.07722388073347 240.68057158267248, 227.04551667315607 228.24945405938576 M178.84004808449822 288.76269781792786 C189.53203260384146 272.7879513407722, 203.24421067904825 258.7202550051269, 226.42944944043833 233.2482018282471 M177.0927111259632 291.06037237419065 C194.45946502028428 269.5484947671611, 211.34050833316292 251.23285744754887, 226.5998985734694 232.99830237103828 M184.2484720882878 289.5570412044486 C194.3742347590643 273.68309558078084, 209.52097169709432 259.52482375359733, 227.7271098762443 238.4151389250314 M183.51026533943715 289.5790674350297 C198.99714636048375 271.8475569984558, 215.5812032406476 252.3689612061261, 227.5102611107444 238.90837947984843 M186.72346088816016 291.88075428166565 C201.50401443902373 274.5073077495114, 213.473822725906 260.8714040546826, 226.99093227610174 245.56634073204336 M188.36596924126684 289.4014670940968 C202.56213309995155 273.85635406201476, 216.91239023679438 257.37502067512, 225.44461928364072 245.49188164587108 M195.164717991315 290.5616371274148 C201.8787619709373 279.2505710940642, 206.99403747696593 274.28633491344056, 226.49385799321996 250.47377003234143 M192.91301144607382 290.4349917905559 C203.7571378921681 277.47799502707886, 216.1430501643224 264.2613886027976, 225.9385792402895 252.61308732599284 M200.2051326639901 288.5576562654229 C205.51573582919767 280.3621571607729, 214.72483795604515 272.1866789895213, 224.5537502558082 257.33321773398416 M197.42975851501777 290.4721112219619 C207.51240159075812 280.37222325191084, 216.2208412841833 269.64298264539116, 226.8334111913219 256.84623591460036 M203.64675216338514 289.73176802352566 C207.69672181354383 284.62067611782277, 214.86365657965277 281.0775456683674, 227.75271708010413 265.84093161069825 M202.87447718772023 289.24641770247865 C212.2774802760777 281.1246366975795, 218.24307620118992 272.6201879809421, 225.7141223228974 264.8334064842485 M207.39980950573795 289.70209517544976 C214.95246963819162 284.7127437506543, 222.13503412835308 274.88113748598437, 227.71702447330756 268.72314924031946 M209.0431121503409 289.564052804661 C214.2247598573092 285.6333485040297, 217.88229261477233 280.458966285659, 226.90811999963773 270.0953007241011 M214.8753429261391 288.7350878153313 C219.7153225594921 285.05676051855846, 223.94495880727067 279.6087681429225, 226.07993483138915 274.7491824837196 M214.25012423846692 289.40381519210905 C217.39316589454418 287.18392711146555, 220.194543949195 283.23062797819654, 225.7081136293308 276.1679379253443 M219.8065854460863 290.08212262766233 C221.63483003982552 286.4872449125838, 224.3780214084039 283.3301821060433, 226.58767033414162 282.0297741363114 M219.41393586769007 290.4943238631988 C221.72528353277167 287.2757708414756, 224.356610568259 285.36413174349383, 225.53896552882335 283.0001166182859" stroke="#ced4da" stroke-width="0.5" fill="none"></path><path d="M1.3112826670267306 0.9029036785639468 C82.32557369102105 -1.250599290989994, 164.00345476485705 -1.7967111647247438, 224.31156645950364 -0.9861370064145072 M0.3998521582522339 0.8434107467096864 C67.31867438131927 -1.2497939169997503, 134.7618486135066 -1.513184150183547, 223.21955419799127 -0.6455799814549371 M224.01782242442368 -1.2581297941274172 C224.33592110520476 95.9515923757837, 222.831224507746 189.59212689909378, 223.9798981508965 287.9233083749517 M223.70004538876455 0.3295263038898244 C225.8246397191464 77.85802026571731, 225.23783494599797 156.01423240948904, 224.760214350361 287.46340847502296 M223.58343186707833 286.9334744511155 C176.87154328897128 290.3530533254891, 133.5912343930231 290.90460597259107, 0.6873286496275828 289.26110518555026 M224.75860836440324 288.90645211795896 C161.97204014811686 288.16565968349005, 99.52912946019413 289.1481275213417, -0.4478707691136313 287.49559187527905 M0.41626241041677287 289.33085992804536 C1.1173897961651549 179.08866984576284, 2.6940392443306207 70.66262919409175, -1.401874778874366 -0.1670633445227287 M-0.057294757139524415 288.10619071801665 C-0.9835964228187797 184.7630653594568, -1.680290935332835 81.77270469694491, 0.3245597368971359 0.44141976164807895" stroke="#000000" stroke-width="1" fill="none"></path></g><g transform="translate(1227.383899598689 343.00838216145803) rotate(0 45.205078125 19.229555000030587)"><path d="M1.8608850371092558 -1.2183736991137266 L90.2933263313026 0.502994554117322 L90.46027804724879 37.888384993078596 L-1.4668120611459017 37.974106426241285" stroke="none" stroke-width="0" fill="#228be6"></path><path d="M1.08225323446095 1.445880664512515 C18.36840840839979 1.7126838455698818, 40.44364324847633 -0.7419579138257174, 90.31572826392956 1.866684390231967 M0.6118209725245833 -0.7898352658376098 C21.208628755872287 1.0659245897031724, 43.23040049033083 -0.7669986140035688, 89.91109860595323 -0.011535785160958767 M89.29186685569591 -0.9473524559289217 C89.06850795216904 9.826826156398756, 91.47763751216279 17.212041069385613, 88.9112843442709 38.41334854707349 M90.21882475074388 0.23719940427690744 C90.56802934689887 9.025927734374838, 91.0422312943495 18.93694858308849, 91.39317009504892 37.52042435284931 M90.44240035302944 38.91420733079541 C56.91532928469864 38.787758497327935, 25.23361229656804 36.39035627040304, 0.8167178202420473 38.245010903926975 M89.85419366415597 37.58912871953327 C56.89425832685633 38.65010038456004, 25.79111067113628 38.89228666266482, -0.7462040716782212 38.44236602064449 M-1.7773645352572203 39.29562859878171 C-0.5494131078594823 25.95618064500226, -0.3688487639301915 15.396103952819487, -1.019423944875598 -0.6132430899888277 M-0.3035139376297593 37.537826673949546 C0.8766292876158148 30.150373120823645, 0.4605056888018042 23.48170866834472, 0.5689953928813338 -0.023390225134789944" stroke="#000000" stroke-width="1" fill="none"></path></g><g transform="translate(1241.2087156274051 350.8912365045571) rotate(0 31.022633807536522 11.633487677826224)"><text x="31.022633807536494" y="16.266975355652352" font-family="Virgil, Segoe UI Emoji" font-size="18.154721051083445px" fill="#000000" text-anchor="middle" style="white-space: pre;" direction="ltr">kubelet</text></g><g><g transform="translate(1249.42578125 251.3937988281259) rotate(0 6.13997548284442 45.01150681875629)"><path d="M1.1246238213032484 1.1164781291037797 C2.682699866699871 15.736923615013561, 8.001409933505936 73.71719099270801, 9.776304597676972 88.389183338359 M0.2559125981479884 0.6570252015441658 C2.1511604985174504 15.330082081382473, 10.134547379402798 74.42484188022713, 12.024038367540815 89.36598843596876" stroke="#000000" stroke-width="1" fill="none"></path></g><g transform="translate(1249.42578125 251.3937988281259) rotate(0 6.13997548284442 45.01150681875629)"><path d="M0.04148203938826889 61.2772088407055 C1.1953426985367774 73.41040251803167, 7.107334726568414 81.18043147950948, 11.86619920154033 90.31160642653704 M-1.1362602974884215 62.47686546598379 C4.384652673897011 72.65254551670986, 9.335903603357874 83.73372100139197, 11.538684667655506 88.85754127223045" stroke="#000000" stroke-width="1" fill="none"></path></g><g transform="translate(1249.42578125 251.3937988281259) rotate(0 6.13997548284442 45.01150681875629)"><path d="M20.388044096574006 58.60561477742995 C14.72733797416429 71.82622499731879, 13.809924509896604 80.49298526493314, 11.86619920154033 90.31160642653704 M19.210301759697316 59.80527140270824 C16.655062654216525 70.87563429900634, 13.54294792524048 83.0155655460897, 11.538684667655506 88.85754127223045" stroke="#000000" stroke-width="1" fill="none"></path></g></g><g transform="translate(1306.098743348689 402.71541341145803) rotate(0 45.205078125 19.229555000030587)"><path d="M-1.0843931306153536 -0.7408079337328672 L90.87038703076549 -0.19998167268931866 L89.09483386389918 38.532210524084455 L0.635395122691989 37.617077465059644" stroke="none" stroke-width="0" fill="#15aabf"></path><path d="M-0.5596878360956907 -0.6915361750870943 C25.34261937477825 0.925976290439758, 52.18635000178988 1.4272671482316586, 91.43684871681042 -0.5279345978051424 M-0.22916527930647135 -0.03719740267843008 C27.87926989129667 1.316831932211608, 55.49274713801065 0.02645023241111666, 91.01768315490342 -0.06877341028302908 M89.98427637107677 -1.647635506466031 C89.73427658457895 12.222612751221597, 90.6152079023852 24.114053559568404, 92.14409913308926 37.61601959809888 M90.62570226844407 0.6218563104048371 C90.14744863463946 10.660605599550497, 89.88086689068385 20.46031928231188, 91.01519653853036 38.35887764569599 M89.1527542043478 38.404964319320804 C64.47771247077077 39.33671239893176, 42.55036856739392 38.54368028919436, 0.21982069499790668 37.423878244014865 M90.57338807638742 37.82260154362995 C60.90511691105171 39.328693598043735, 32.79871155229559 39.35170263005477, 0.2682173913344741 37.58080710645992 M-1.990472598001361 40.3563318763696 C0.9434399642599217 30.29138195558346, 1.8223685660017124 19.665959546394, -0.012439234182238579 -0.4542732108384371 M-0.895049505867064 37.524412291014976 C-0.8116104757967291 26.972897871976397, -0.6442990160169897 16.15384442858479, -0.8347349995747209 0.5068355286493897" stroke="#000000" stroke-width="1" fill="none"></path></g><g transform="translate(1322.4235593774051 410.5982677545571) rotate(0 28.5 11.5)"><text x="28.5" y="16" font-family="Virgil, Segoe UI Emoji" font-size="18.154721051083445px" fill="#000000" text-anchor="middle" style="white-space: pre;" direction="ltr">docker</text></g><g><g transform="translate(1276.7304687499998 385.4602050781259) rotate(0 11.110562983304249 10.750987915784435)"><path d="M-0.09048266597092147 0.311230917647481 C3.8259155294547478 3.6182506506940477, 19.555444103603563 17.090966750334083, 23.818250761553646 20.68088099937186 M-1.5971247949451208 -0.57097679592669 C2.083181476766865 2.842793353875553, 18.087534951542814 18.648287626008567, 22.569708822742104 22.07295262749538" stroke="#000000" stroke-width="1" fill="none"></path></g><g transform="translate(1276.7304687499998 385.4602050781259) rotate(0 11.110562983304249 10.750987915784435)"><path d="M8.028877215658724 15.407290238978963 C12.168171707171467 19.580535491703266, 18.621707799991633 20.87119200526907, 21.594834363083088 20.543249687765076 M8.017639563011425 16.4228414261804 C12.53404854919936 19.01663346459217, 17.079381646125004 20.347582008336985, 22.098785195447633 22.528517848704947" stroke="#000000" stroke-width="1" fill="none"></path></g><g transform="translate(1276.7304687499998 385.4602050781259) rotate(0 11.110562983304249 10.750987915784435)"><path d="M15.319981592285771 7.17260822794259 C17.13515727904411 14.030256968708619, 21.207016706253654 18.0108146249984, 21.594834363083088 20.543249687765076 M15.308743939638472 8.188159415144026 C17.362575294085858 13.563658750067685, 19.426548985047525 17.697091610003312, 22.098785195447633 22.528517848704947" stroke="#000000" stroke-width="1" fill="none"></path></g></g><g transform="translate(1245.692493348689 480.84822591145803) rotate(0 56.97750631158533 29.401430000030587)"><path d="M1.984675982967019 -1.7056261990219355 L113.67275963532389 -0.63397634960711 L115.28264073836267 60.73960843578212 L0.7837406788021326 58.749166457804364" stroke="none" stroke-width="0" fill="#ced4da"></path><path d="M1.4395159389823675 -1.1261093821376562 C27.324010519693633 -1.8525801848392485, 50.309691852724235 -2.0707363437633513, 114.14876567753613 0.6536872778087854 M0.9422226743772626 0.03071486484259367 C24.217878122877714 0.9726045535971508, 47.85213514150756 1.2497510420252667, 114.78401606618077 0.8251975430175662 M115.12636052998364 -1.865190228447318 C115.19541944208338 11.649452080654262, 112.69711346569254 24.33259147532713, 112.88370090159238 57.51474769681923 M114.747668438541 0.2888637436553836 C113.51844005489889 23.12138696461439, 113.84547342563215 43.49147255587369, 114.02402611910016 58.153322014848214 M115.44956784876645 58.47815473646156 C76.18957316793299 59.72325770824872, 43.687869731606355 59.37371956079922, 1.012262037023902 57.70364918083183 M114.2085570925346 59.64794066909931 C80.68856534953858 58.85074813320529, 44.79725574307818 59.83973429753673, 0.5042263763025403 58.31427049998425 M1.6102487351745367 59.1195556101226 C-1.3077606327342743 46.31516186152396, -0.20233354638097234 32.88348883130911, -1.9735554549843073 -1.4953675474971533 M-0.2224441273137927 59.202390435973626 C-0.02018435005940067 37.96668865848101, 0.5780720889111651 17.48967962238244, -0.21249536704272032 0.6361374808475375" stroke="#000000" stroke-width="1" fill="none"></path></g><g transform="translate(1251.7738009612585 476.2839544118142) rotate(0 50 29)"><text x="50" y="20" font-family="Virgil, Segoe UI Emoji" font-size="22.882622399475753px" fill="#000000" text-anchor="middle" style="white-space: pre;" direction="ltr">app</text><text x="50" y="49" font-family="Virgil, Segoe UI Emoji" font-size="22.882622399475753px" fill="#000000" text-anchor="middle" style="white-space: pre;" direction="ltr">container</text></g><g><g transform="translate(1342.62109375 452.4133300781259) rotate(0 -1.1032088893558694 12.00762872560881)"><path d="M-1.1404838841408491 -1.097571362927556 C-1.762931871538361 2.706774805113673, -2.7238978109012044 19.484499154612422, -2.6680411260575054 23.733679078146814 M0.4616233473457396 0.9405997261963783 C0.12193723712737364 4.843519208785146, -0.15972123370195446 21.56205713963136, -0.4113980246149005 25.11282881414518" stroke="#000000" stroke-width="1" fill="none"></path></g><g transform="translate(1342.62109375 452.4133300781259) rotate(0 -1.1032088893558694 12.00762872560881)"><path d="M-5.192055131976828 12.765702801330326 C-2.875280291581625 19.134249374619237, -0.7781337757652089 22.486952078180604, -0.001223221965219068 24.439205955733808 M-3.5510322071764984 13.645958776808024 C-2.7237974103117817 17.847585447504418, -1.8536542500413362 21.004379509440245, -0.6483079464130792 24.67538250095854" stroke="#000000" stroke-width="1" fill="none"></path></g><g transform="translate(1342.62109375 452.4133300781259) rotate(0 -1.1032088893558694 12.00762872560881)"><path d="M3.045260711557156 13.086186389587644 C2.156224654881701 19.25181327055402, 1.0499842033613835 22.479883998193927, -0.001223221965219068 24.439205955733808 M4.686283636357486 13.966442365065342 C2.8630420205416445 18.12812721914405, 1.0822670428875232 21.181783830342777, -0.6483079464130792 24.67538250095854" stroke="#000000" stroke-width="1" fill="none"></path></g></g></svg>